<svg id="svg" version="1.1" xmlns="http://www.w3.org/2000/svg" xmlns:xlink="http://www.w3.org/1999/xlink" width="400" height="400" viewBox="0, 0, 400,400"><g id="svgg"><path id="path0" d="M161.990 35.427 C 161.860 35.639,161.438 35.816,161.052 35.822 C 160.262 35.833,159.162 36.556,159.298 36.974 C 159.347 37.126,159.137 37.606,158.830 38.041 C 158.524 38.476,158.271 38.691,158.268 38.520 C 158.265 38.349,157.978 38.653,157.631 39.195 C 156.853 40.409,156.223 46.480,156.782 47.375 C 157.046 47.798,156.957 48.264,156.397 49.386 C 155.920 50.340,155.692 51.315,155.737 52.201 C 155.775 52.947,155.721 54.205,155.616 54.996 C 155.510 55.787,155.266 58.953,155.071 62.030 C 154.877 65.108,154.586 68.561,154.424 69.704 C 154.262 70.847,154.059 72.718,153.972 73.861 C 153.541 79.521,153.387 80.912,152.956 83.061 C 152.699 84.340,152.549 85.491,152.622 85.619 C 152.696 85.747,152.613 87.434,152.439 89.369 C 152.265 91.303,152.083 93.605,152.034 94.484 C 151.985 95.364,151.806 97.234,151.637 98.641 C 151.467 100.048,151.301 103.203,151.268 105.651 C 151.235 108.100,151.137 110.218,151.050 110.358 C 150.590 111.103,151.746 117.355,153.318 122.622 C 153.738 124.029,154.175 125.517,154.290 125.929 C 154.404 126.341,154.895 127.492,155.380 128.487 C 155.865 129.482,156.461 130.763,156.706 131.335 C 156.950 131.906,157.259 132.374,157.392 132.374 C 157.525 132.374,157.634 132.581,157.634 132.834 C 157.634 133.087,158.066 133.766,158.593 134.344 C 159.121 134.922,159.552 135.591,159.552 135.832 C 159.552 136.350,160.531 137.671,162.190 139.393 C 162.850 140.077,163.389 140.864,163.389 141.142 C 163.389 141.420,163.583 141.647,163.820 141.647 C 164.057 141.647,164.381 141.921,164.539 142.255 C 164.698 142.590,167.232 145.360,170.169 148.410 C 177.963 156.504,177.354 155.479,177.585 160.914 C 177.691 163.418,177.750 167.122,177.717 169.145 C 177.683 171.167,177.757 173.121,177.881 173.488 C 178.346 174.860,177.193 175.010,165.787 175.061 L 155.236 175.108 153.715 176.147 C 150.647 178.243,150.521 178.585,150.433 185.061 C 150.142 206.357,150.276 283.446,150.607 285.935 C 150.863 287.855,150.935 292.929,150.836 302.046 C 150.720 312.685,150.776 315.522,151.115 316.190 C 151.797 317.536,163.500 328.697,164.228 328.697 C 164.447 328.697,164.717 328.986,164.829 329.340 C 164.941 329.694,165.419 330.187,165.890 330.437 C 166.361 330.687,167.148 331.404,167.640 332.032 C 168.131 332.660,168.690 333.173,168.882 333.173 C 169.075 333.173,170.344 334.325,171.703 335.731 C 173.061 337.138,174.234 338.289,174.308 338.289 C 174.382 338.289,175.985 339.800,177.870 341.647 C 179.755 343.493,181.456 345.004,181.649 345.004 C 181.843 345.004,183.807 346.803,186.013 349.001 C 188.219 351.199,190.156 352.998,190.317 352.998 C 190.479 352.998,191.091 353.465,191.679 354.037 C 193.873 356.171,194.769 356.835,195.457 356.833 C 196.493 356.832,198.881 354.686,198.881 353.757 C 198.881 353.339,199.025 352.998,199.201 352.998 C 199.413 352.998,199.522 332.078,199.525 290.887 C 199.528 256.727,199.636 228.623,199.765 228.434 C 200.178 227.830,201.126 227.650,204.007 227.628 C 206.388 227.609,209.522 227.269,217.568 226.155 C 218.262 226.059,219.040 225.770,219.296 225.514 C 219.602 225.207,220.103 225.110,220.753 225.231 C 221.347 225.342,222.106 225.225,222.653 224.940 C 223.154 224.679,224.017 224.434,224.572 224.395 C 225.126 224.357,226.515 223.855,227.658 223.280 C 228.801 222.705,229.924 222.231,230.153 222.228 C 230.628 222.221,233.007 221.214,234.736 220.287 C 235.375 219.945,236.085 219.664,236.313 219.664 C 237.017 219.664,239.501 218.343,240.300 217.544 C 240.717 217.128,241.335 216.787,241.673 216.787 C 242.011 216.787,242.459 216.580,242.669 216.328 C 242.878 216.075,243.471 215.776,243.987 215.663 C 244.502 215.549,244.924 215.264,244.924 215.027 C 244.924 214.791,245.464 214.422,246.123 214.207 C 246.783 213.992,247.729 213.477,248.226 213.063 C 248.723 212.649,249.407 212.310,249.745 212.310 C 250.138 212.310,250.360 212.089,250.360 211.696 C 250.360 211.274,250.659 211.016,251.319 210.871 C 251.846 210.756,252.457 210.420,252.677 210.127 C 252.898 209.833,253.464 209.393,253.935 209.150 C 254.407 208.907,255.307 208.224,255.934 207.631 C 256.562 207.039,257.200 206.555,257.351 206.555 C 257.503 206.555,258.023 205.984,258.506 205.286 C 258.990 204.588,259.693 203.922,260.069 203.806 C 260.892 203.551,264.412 200.016,265.028 198.825 C 265.269 198.358,265.736 197.905,266.065 197.819 C 266.394 197.733,266.760 197.397,266.879 197.073 C 266.997 196.748,267.610 195.968,268.239 195.338 C 270.538 193.041,272.085 191.030,272.093 190.328 C 272.098 189.932,272.294 189.608,272.528 189.608 C 272.762 189.608,273.158 189.213,273.407 188.729 C 273.657 188.245,274.185 187.587,274.580 187.267 C 274.976 186.946,275.300 186.542,275.300 186.369 C 275.300 186.196,275.722 185.522,276.239 184.873 C 276.755 184.224,277.272 183.308,277.387 182.837 C 277.502 182.366,277.763 181.915,277.967 181.834 C 278.170 181.754,278.754 180.844,279.262 179.813 C 279.771 178.781,280.379 177.578,280.613 177.138 C 281.686 175.126,282.974 172.369,282.974 172.085 C 282.974 171.912,283.162 171.699,283.393 171.610 C 283.623 171.522,283.999 170.823,284.227 170.057 C 284.456 169.292,284.791 168.572,284.972 168.459 C 285.153 168.345,285.362 167.644,285.436 166.900 C 285.511 166.156,285.880 165.131,286.256 164.621 C 286.738 163.970,286.980 163.087,287.071 161.648 C 287.163 160.206,287.317 159.644,287.592 159.750 C 288.005 159.908,288.102 159.480,288.081 157.588 C 288.074 156.947,288.288 156.202,288.558 155.932 C 288.828 155.662,289.050 155.179,289.051 154.859 C 289.052 154.539,289.244 153.909,289.479 153.461 C 289.901 152.651,290.438 148.701,290.358 146.992 C 290.335 146.503,290.499 145.784,290.722 145.394 C 290.960 144.977,291.153 143.367,291.191 141.487 C 291.226 139.728,291.348 135.592,291.461 132.294 C 291.596 128.371,291.557 126.299,291.348 126.299 C 291.150 126.299,291.095 125.555,291.204 124.352 C 291.428 121.886,290.519 115.057,289.613 112.390 C 289.434 111.863,289.172 110.783,289.031 109.992 C 288.252 105.601,284.611 94.273,283.533 92.886 C 283.309 92.598,281.335 88.810,279.207 84.585 C 278.767 83.712,278.212 82.803,277.973 82.563 C 277.734 82.324,277.538 81.928,277.538 81.683 C 277.538 81.438,277.250 81.084,276.898 80.895 C 276.547 80.707,276.259 80.259,276.259 79.899 C 276.259 79.313,274.222 76.419,273.621 76.152 C 273.489 76.094,273.381 75.919,273.381 75.764 C 273.381 75.609,273.083 75.153,272.719 74.751 C 272.355 74.350,270.767 72.366,269.192 70.344 C 265.274 65.315,264.674 64.627,264.029 64.412 C 263.721 64.309,263.469 64.024,263.469 63.779 C 263.469 63.533,263.215 63.196,262.904 63.029 C 262.593 62.863,261.620 62.030,260.742 61.179 C 258.303 58.815,255.137 56.142,254.473 55.886 C 254.145 55.759,253.877 55.517,253.877 55.348 C 253.877 55.178,253.568 54.941,253.190 54.821 C 252.813 54.701,252.058 54.191,251.512 53.687 C 250.074 52.360,246.017 49.491,243.885 48.293 C 242.874 47.726,241.966 47.131,241.868 46.972 C 241.769 46.813,241.410 46.683,241.068 46.683 C 240.727 46.683,240.448 46.539,240.448 46.363 C 240.448 46.187,240.218 46.043,239.937 46.043 C 239.657 46.043,239.045 45.791,238.577 45.484 C 236.306 43.989,236.691 44.173,233.413 43.006 C 232.094 42.536,230.584 41.959,230.056 41.724 C 229.528 41.488,228.305 40.951,227.338 40.529 C 226.371 40.107,225.035 39.520,224.370 39.225 C 223.704 38.930,222.812 38.689,222.386 38.689 C 221.961 38.689,221.282 38.564,220.878 38.410 C 218.418 37.476,214.466 36.613,210.552 36.155 C 209.321 36.011,208.060 35.787,207.751 35.657 C 206.704 35.218,204.871 35.771,205.054 36.471 C 205.143 36.811,205.085 37.170,204.926 37.269 C 204.767 37.367,204.636 37.223,204.636 36.949 C 204.636 36.675,204.521 36.451,204.380 36.451 C 203.962 36.451,203.357 37.183,203.357 37.689 C 203.357 37.947,203.131 38.409,202.854 38.715 C 201.991 39.668,201.909 42.092,202.408 51.799 C 202.575 55.052,202.714 59.512,202.717 61.711 C 202.720 63.909,202.875 66.643,203.061 67.786 C 203.247 68.929,203.442 73.173,203.494 77.218 C 203.545 81.263,203.758 86.803,203.966 89.528 C 204.174 92.254,204.352 94.628,204.362 94.804 C 204.471 96.677,203.662 100.510,203.070 100.925 C 202.700 101.183,202.398 101.567,202.398 101.777 C 202.398 102.159,201.886 102.232,198.161 102.383 C 195.770 102.480,193.965 101.705,193.168 100.240 C 192.881 99.712,192.542 99.202,192.414 99.107 C 192.019 98.811,191.572 86.163,191.048 60.432 C 190.812 48.873,190.215 40.147,189.586 39.070 C 189.247 38.489,188.969 37.753,188.969 37.436 C 188.969 37.010,188.759 36.882,188.169 36.946 C 187.672 37.001,187.370 36.873,187.370 36.607 C 187.370 35.438,184.249 35.414,182.097 36.566 C 180.849 37.235,179.518 41.146,180.103 42.429 C 180.322 42.911,180.343 43.295,180.158 43.428 C 179.883 43.626,179.757 46.361,179.493 57.874 C 178.519 100.444,178.599 99.306,176.432 101.032 C 174.101 102.888,167.866 102.734,167.866 100.820 C 167.866 100.589,167.658 100.400,167.405 100.400 C 166.067 100.400,166.001 98.766,166.592 80.416 C 166.797 74.085,167.010 66.582,167.065 63.743 C 167.121 60.904,167.318 58.300,167.502 57.955 C 167.710 57.566,167.858 53.812,167.890 48.063 L 167.942 38.797 166.385 37.311 C 165.119 36.104,164.609 35.825,163.656 35.819 C 163.011 35.815,162.426 35.639,162.355 35.427 C 162.256 35.129,162.175 35.129,161.990 35.427 M224.535 40.981 C 224.259 41.257,223.971 41.262,223.432 41.002 C 222.746 40.672,222.769 40.649,223.805 40.629 C 224.646 40.613,224.819 40.696,224.535 40.981 M236.771 45.404 C 236.662 45.580,236.366 45.723,236.112 45.723 C 235.859 45.723,235.651 45.580,235.651 45.404 C 235.651 45.228,235.948 45.084,236.310 45.084 C 236.672 45.084,236.879 45.228,236.771 45.404 M242.932 49.940 C 242.735 50.533,242.046 50.631,242.046 50.067 C 242.046 49.788,242.274 49.560,242.553 49.560 C 242.831 49.560,243.002 49.731,242.932 49.940 M220.809 91.923 C 221.246 92.360,221.708 92.690,221.833 92.654 C 222.243 92.539,223.524 93.390,223.354 93.664 C 223.264 93.811,223.619 94.109,224.145 94.326 C 224.670 94.544,225.100 94.839,225.100 94.981 C 225.100 95.124,225.388 95.332,225.739 95.444 C 226.091 95.555,226.379 95.853,226.379 96.105 C 226.379 96.357,226.670 96.563,227.025 96.563 C 227.404 96.563,227.822 96.893,228.036 97.362 C 228.236 97.802,228.521 98.161,228.668 98.161 C 228.815 98.161,229.531 98.739,230.258 99.444 C 230.984 100.149,232.272 101.044,233.120 101.433 C 233.967 101.822,234.519 102.228,234.345 102.335 C 233.653 102.763,233.599 104.876,234.281 104.876 C 235.068 104.876,235.818 105.712,236.103 106.908 C 236.222 107.410,236.584 107.890,236.906 107.975 C 237.580 108.151,238.209 109.353,238.209 110.464 C 238.209 110.883,238.408 111.424,238.651 111.666 C 238.893 111.909,239.194 112.711,239.318 113.448 C 239.443 114.185,239.676 114.788,239.836 114.788 C 239.997 114.788,240.128 115.283,240.128 115.888 C 240.128 116.494,240.253 117.066,240.405 117.160 C 240.558 117.255,240.781 118.072,240.901 118.977 C 241.021 119.882,241.400 121.360,241.743 122.261 C 242.231 123.546,242.366 124.708,242.366 127.624 C 242.366 130.638,242.457 131.381,242.846 131.530 C 243.441 131.759,243.458 132.196,242.894 132.760 C 242.657 132.997,242.364 134.266,242.244 135.580 C 242.123 136.894,241.869 139.086,241.679 140.451 C 241.411 142.371,241.424 143.153,241.735 143.906 C 242.038 144.637,242.047 144.971,241.773 145.246 C 241.498 145.520,241.406 145.376,241.405 144.668 L 241.403 143.725 240.975 144.546 C 240.329 145.784,240.087 147.019,240.446 147.241 C 240.623 147.351,240.756 147.683,240.742 147.981 C 240.726 148.334,240.660 148.378,240.551 148.108 C 240.354 147.616,239.488 148.193,239.488 148.817 C 239.488 149.025,239.074 149.848,238.568 150.647 C 238.062 151.445,237.450 152.645,237.209 153.314 C 236.968 153.983,236.519 154.687,236.211 154.880 C 235.903 155.072,235.651 155.411,235.651 155.632 C 235.651 155.853,235.148 156.591,234.532 157.272 C 233.917 157.953,233.413 158.739,233.413 159.018 C 233.413 159.296,232.658 160.299,231.735 161.245 C 230.811 162.192,229.696 163.415,229.257 163.964 C 228.817 164.512,228.279 164.967,228.060 164.974 C 227.842 164.982,227.484 165.276,227.264 165.627 C 227.044 165.979,226.620 166.267,226.321 166.267 C 226.022 166.267,225.693 166.403,225.590 166.570 C 225.345 166.967,222.587 168.825,222.243 168.825 C 222.097 168.825,221.907 169.094,221.821 169.423 C 221.713 169.834,221.148 170.144,220.005 170.419 C 219.055 170.647,218.184 171.075,217.968 171.420 C 217.761 171.751,217.271 172.022,216.879 172.022 C 216.487 172.022,215.623 172.328,214.958 172.702 C 214.293 173.075,212.754 173.506,211.538 173.659 C 210.323 173.811,209.100 174.138,208.821 174.383 C 208.364 174.785,195.443 175.533,193.765 175.255 C 192.472 175.041,192.455 174.761,192.769 158.593 L 192.809 156.515 194.804 154.436 C 196.851 152.305,197.940 150.891,198.340 149.847 C 198.464 149.521,198.748 149.324,198.969 149.409 C 199.193 149.495,199.938 148.804,200.645 147.855 C 201.346 146.915,202.171 146.059,202.479 145.953 C 202.788 145.847,203.219 145.429,203.439 145.025 C 203.658 144.621,204.556 143.670,205.436 142.912 C 206.315 142.154,207.001 141.424,206.961 141.291 C 206.921 141.157,207.403 140.518,208.033 139.870 C 208.998 138.876,209.148 138.534,208.991 137.691 C 208.825 136.800,208.852 136.753,209.238 137.256 C 209.810 138.003,210.185 137.434,213.777 130.376 C 214.202 129.540,214.688 128.857,214.857 128.857 C 215.025 128.857,215.314 128.296,215.499 127.611 C 215.683 126.925,216.049 126.282,216.310 126.182 C 216.590 126.075,216.787 125.592,216.787 125.014 C 216.787 124.472,217.006 123.604,217.275 123.084 C 217.544 122.565,217.900 121.169,218.067 119.983 C 218.233 118.796,218.590 117.034,218.860 116.067 C 219.382 114.193,219.364 103.445,218.837 102.592 C 218.698 102.367,218.539 100.530,218.485 98.510 C 218.430 96.489,218.241 94.692,218.066 94.516 C 217.709 94.160,217.626 91.674,217.959 91.340 C 218.458 90.841,220.053 91.167,220.809 91.923 M231.367 98.353 C 231.212 98.757,231.058 98.812,230.802 98.556 C 230.609 98.363,230.546 97.955,230.663 97.650 C 230.818 97.247,230.972 97.191,231.228 97.447 C 231.421 97.640,231.484 98.048,231.367 98.353 M286.039 162.988 C 285.696 163.332,285.513 162.850,285.754 162.236 C 285.981 161.660,285.998 161.659,286.110 162.215 C 286.175 162.537,286.143 162.885,286.039 162.988 M285.532 164.189 C 285.532 164.628,285.388 164.988,285.212 164.988 C 285.036 164.988,284.892 164.628,284.892 164.189 C 284.892 163.749,285.036 163.389,285.212 163.389 C 285.388 163.389,285.532 163.749,285.532 164.189 M157.498 176.461 C 157.402 176.615,156.929 176.818,156.446 176.910 C 155.625 177.067,155.608 177.049,156.182 176.628 C 156.860 176.133,157.772 176.016,157.498 176.461 M196.245 354.357 C 196.172 354.576,195.765 354.796,195.339 354.846 C 194.589 354.932,194.584 354.919,195.185 354.446 C 195.937 353.854,196.424 353.813,196.245 354.357 " stroke="none" fill="#fb725d" fill-rule="evenodd"></path><path id="path1" d="M159.743 34.741 C 157.471 35.401,156.389 37.943,155.850 43.883 C 155.607 46.566,155.261 50.086,155.082 51.706 C 154.903 53.326,154.776 55.412,154.800 56.342 C 154.834 57.655,154.903 57.390,155.107 55.156 C 156.474 40.204,156.568 39.521,157.490 37.758 C 159.274 34.345,164.402 33.850,167.156 36.825 L 168.345 38.110 168.515 44.714 L 168.685 51.319 168.755 44.718 L 168.825 38.117 167.306 36.474 L 165.787 34.832 163.070 34.698 C 161.575 34.624,160.078 34.644,159.743 34.741 M183.082 34.760 C 181.324 35.033,179.329 37.342,179.394 39.030 C 179.404 39.282,179.660 38.878,179.963 38.131 C 182.178 32.679,189.770 34.652,190.572 40.888 C 190.798 42.646,190.804 42.654,190.821 41.247 C 190.876 36.717,187.689 34.046,183.082 34.760 M205.014 34.775 C 202.004 35.119,200.449 40.830,201.422 47.962 C 201.560 48.966,201.593 47.703,201.501 45.015 L 201.340 40.310 202.386 38.186 C 204.127 34.649,206.399 34.325,215.445 36.326 C 216.730 36.610,217.869 36.754,217.976 36.647 C 218.084 36.539,217.869 36.451,217.498 36.451 C 217.128 36.451,216.735 36.307,216.627 36.131 C 216.518 35.955,215.992 35.811,215.457 35.811 C 214.923 35.811,214.032 35.609,213.478 35.362 C 212.479 34.916,207.063 34.540,205.014 34.775 M218.412 36.885 C 218.485 36.949,220.325 37.537,222.501 38.194 C 224.677 38.850,227.842 40.004,229.535 40.757 C 231.229 41.511,234.197 42.822,236.131 43.671 C 260.967 54.570,283.196 81.485,289.190 107.914 C 289.470 109.145,289.902 110.871,290.150 111.751 C 291.952 118.119,292.715 130.840,291.921 141.250 C 291.186 150.889,288.117 162.765,284.088 171.568 C 283.518 172.813,282.941 174.180,282.807 174.606 C 282.112 176.802,274.440 189.406,272.682 191.239 C 271.770 192.190,270.113 194.440,270.235 194.562 C 270.498 194.825,275.651 187.954,277.908 184.333 C 279.214 182.237,282.974 175.592,282.974 175.380 C 282.974 175.308,283.639 173.695,284.453 171.797 C 293.377 150.981,295.103 128.275,289.394 106.795 C 288.676 104.090,286.194 96.582,285.537 95.124 C 283.760 91.183,279.648 83.059,278.216 80.661 C 274.085 73.745,265.800 64.019,259.486 58.673 C 258.447 57.794,257.160 56.679,256.625 56.195 C 256.090 55.711,255.551 55.316,255.427 55.316 C 255.303 55.316,255.011 55.135,254.779 54.915 C 253.788 53.974,251.053 51.799,250.861 51.799 C 250.614 51.799,249.883 51.219,249.147 50.440 C 248.857 50.132,248.501 49.880,248.357 49.880 C 248.082 49.880,246.363 48.721,245.629 48.042 C 245.392 47.822,245.015 47.642,244.790 47.642 C 244.566 47.642,244.051 47.354,243.645 47.002 C 243.240 46.651,242.783 46.363,242.631 46.363 C 242.478 46.363,241.808 46.019,241.141 45.598 C 240.474 45.177,238.355 44.160,236.431 43.339 C 232.202 41.533,232.263 41.560,229.190 40.155 C 227.834 39.535,226.323 38.931,225.832 38.814 C 225.342 38.697,224.796 38.493,224.620 38.362 C 224.444 38.231,223.823 38.021,223.240 37.896 C 222.656 37.772,221.793 37.468,221.321 37.222 C 220.595 36.843,218.017 36.545,218.412 36.885 M179.166 42.046 C 179.168 43.453,179.224 43.989,179.291 43.237 C 179.359 42.485,179.358 41.334,179.289 40.679 C 179.220 40.024,179.165 40.639,179.166 42.046 M190.999 45.404 C 190.999 46.898,191.054 47.510,191.121 46.763 C 191.189 46.015,191.189 44.792,191.121 44.045 C 191.054 43.297,190.999 43.909,190.999 45.404 M191.336 53.078 C 191.336 55.803,191.385 56.918,191.445 55.556 C 191.505 54.193,191.505 51.962,191.445 50.600 C 191.385 49.237,191.336 50.352,191.336 53.078 M178.869 57.234 C 178.869 60.312,178.916 61.571,178.975 60.032 C 179.034 58.493,179.034 55.975,178.975 54.436 C 178.916 52.898,178.869 54.157,178.869 57.234 M201.881 56.115 C 201.881 58.225,201.933 59.047,201.996 57.941 C 202.058 56.835,202.058 55.108,201.995 54.104 C 201.931 53.100,201.880 54.005,201.881 56.115 M168.277 55.476 C 168.279 56.355,168.341 56.677,168.415 56.191 C 168.488 55.705,168.486 54.985,168.411 54.592 C 168.335 54.199,168.275 54.596,168.277 55.476 M154.528 59.952 C 154.530 60.831,154.592 61.153,154.666 60.667 C 154.739 60.181,154.737 59.462,154.662 59.068 C 154.586 58.675,154.526 59.073,154.528 59.952 M167.977 61.391 C 167.977 62.886,168.033 63.497,168.100 62.750 C 168.167 62.002,168.167 60.779,168.100 60.032 C 168.033 59.285,167.977 59.896,167.977 61.391 M202.186 62.990 C 202.186 64.309,202.242 64.848,202.311 64.189 C 202.380 63.529,202.380 62.450,202.311 61.791 C 202.242 61.131,202.186 61.671,202.186 62.990 M154.208 63.469 C 154.211 64.349,154.273 64.670,154.346 64.184 C 154.420 63.698,154.418 62.979,154.342 62.586 C 154.266 62.192,154.206 62.590,154.208 63.469 M191.644 65.068 C 191.644 66.827,191.698 67.505,191.763 66.576 C 191.828 65.647,191.827 64.208,191.761 63.379 C 191.696 62.549,191.643 63.309,191.644 65.068 M178.546 68.745 C 178.546 71.471,178.595 72.586,178.655 71.223 C 178.715 69.860,178.715 67.630,178.655 66.267 C 178.595 64.904,178.546 66.019,178.546 68.745 M167.620 66.507 C 167.620 67.122,167.686 67.374,167.766 67.066 C 167.847 66.759,167.847 66.255,167.766 65.947 C 167.686 65.639,167.620 65.891,167.620 66.507 M153.702 67.591 C 153.578 68.450,153.497 69.961,153.520 70.948 C 153.557 72.482,153.604 72.325,153.844 69.864 C 154.154 66.687,154.056 65.127,153.702 67.591 M202.515 72.422 C 202.516 74.181,202.569 74.859,202.634 73.930 C 202.699 73.001,202.698 71.562,202.633 70.733 C 202.567 69.903,202.514 70.663,202.515 72.422 M191.973 75.939 C 191.973 78.401,192.023 79.366,192.084 78.084 C 192.145 76.801,192.145 74.786,192.083 73.607 C 192.022 72.428,191.972 73.477,191.973 75.939 M167.331 74.341 C 167.333 75.572,167.390 76.036,167.460 75.373 C 167.529 74.709,167.528 73.702,167.457 73.134 C 167.386 72.567,167.330 73.110,167.331 74.341 M153.015 75.797 C 152.891 77.226,152.856 78.462,152.938 78.544 C 153.020 78.627,153.191 77.526,153.317 76.099 C 153.444 74.672,153.478 73.436,153.395 73.352 C 153.311 73.268,153.140 74.368,153.015 75.797 M178.200 80.576 C 178.200 81.719,178.258 82.186,178.329 81.615 C 178.400 81.043,178.400 80.108,178.329 79.536 C 178.258 78.965,178.200 79.432,178.200 80.576 M202.823 80.735 C 202.824 81.966,202.882 82.431,202.951 81.767 C 203.020 81.104,203.019 80.097,202.949 79.529 C 202.878 78.962,202.821 79.504,202.823 80.735 M152.412 81.022 C 152.295 81.881,152.217 83.175,152.241 83.898 C 152.267 84.716,152.386 84.246,152.556 82.654 C 152.859 79.816,152.749 78.567,152.412 81.022 M167.002 84.412 C 167.002 85.380,167.062 85.775,167.135 85.292 C 167.209 84.808,167.209 84.017,167.135 83.533 C 167.062 83.050,167.002 83.445,167.002 84.412 M177.902 87.450 C 177.903 89.736,177.953 90.630,178.015 89.435 C 178.077 88.241,178.076 86.370,178.014 85.278 C 177.952 84.187,177.901 85.164,177.902 87.450 M203.145 86.970 C 203.145 88.289,203.202 88.829,203.270 88.169 C 203.339 87.510,203.339 86.431,203.270 85.771 C 203.202 85.112,203.145 85.651,203.145 86.970 M151.743 88.197 C 151.613 89.838,151.576 91.251,151.662 91.337 C 151.872 91.547,152.308 86.177,152.124 85.638 C 152.044 85.404,151.873 86.555,151.743 88.197 M192.258 88.409 C 192.260 89.289,192.322 89.610,192.396 89.124 C 192.469 88.638,192.467 87.919,192.391 87.526 C 192.315 87.132,192.255 87.530,192.258 88.409 M218.427 92.612 L 218.469 93.845 218.667 92.774 L 218.865 91.704 219.824 92.450 C 221.277 93.580,221.365 93.649,222.191 94.330 C 222.614 94.679,223.045 94.967,223.150 94.971 C 223.255 94.976,223.862 95.448,224.497 96.021 C 225.133 96.594,226.495 97.778,227.523 98.651 C 230.232 100.953,231.172 101.997,231.832 103.437 C 232.449 104.783,235.332 107.855,235.332 107.166 C 235.332 106.685,233.898 105.196,233.435 105.196 C 233.255 105.196,232.700 104.369,232.202 103.359 C 231.216 101.360,226.638 97.007,221.887 93.552 C 218.564 91.134,218.375 91.083,218.427 92.612 M151.330 93.205 C 151.333 94.085,151.395 94.406,151.468 93.920 C 151.542 93.434,151.540 92.715,151.464 92.322 C 151.388 91.928,151.328 92.326,151.330 93.205 M166.705 94.964 C 166.705 96.811,166.758 97.566,166.822 96.643 C 166.887 95.719,166.887 94.209,166.822 93.285 C 166.758 92.362,166.705 93.118,166.705 94.964 M203.469 94.644 C 203.469 96.139,203.524 96.751,203.591 96.003 C 203.659 95.256,203.659 94.033,203.591 93.285 C 203.524 92.538,203.469 93.149,203.469 94.644 M150.753 98.635 C 150.625 100.676,150.593 102.418,150.681 102.506 C 150.769 102.594,150.945 100.996,151.073 98.954 C 151.200 96.913,151.233 95.171,151.145 95.083 C 151.057 94.995,150.881 96.593,150.753 98.635 M177.532 97.202 C 177.532 97.818,177.598 98.070,177.678 97.762 C 177.759 97.454,177.759 96.950,177.678 96.643 C 177.598 96.335,177.532 96.587,177.532 97.202 M219.112 98.481 C 219.112 99.273,219.174 99.596,219.250 99.201 C 219.327 98.805,219.327 98.157,219.250 97.762 C 219.174 97.366,219.112 97.690,219.112 98.481 M193.125 98.714 C 193.125 99.808,195.878 101.812,197.064 101.582 C 197.609 101.476,197.560 101.436,196.840 101.402 C 196.214 101.373,195.472 100.912,194.522 99.962 C 193.754 99.194,193.125 98.632,193.125 98.714 M203.038 98.945 C 203.038 99.521,201.147 100.991,199.941 101.354 C 199.292 101.548,199.220 101.630,199.680 101.645 C 200.702 101.679,203.357 99.856,203.357 99.120 C 203.357 98.769,203.285 98.481,203.197 98.481 C 203.110 98.481,203.038 98.690,203.038 98.945 M167.844 99.836 C 168.447 100.492,169.011 100.960,169.096 100.875 C 169.181 100.789,169.191 100.683,169.116 100.639 C 169.042 100.596,168.479 100.128,167.864 99.601 L 166.747 98.642 167.844 99.836 M175.597 100.562 C 175.216 101.000,174.616 101.359,174.263 101.359 C 173.910 101.359,173.621 101.495,173.621 101.662 C 173.621 102.123,175.387 101.418,176.039 100.697 C 176.349 100.355,176.531 100.006,176.446 99.920 C 176.360 99.835,175.978 100.124,175.597 100.562 M169.784 101.333 C 170.048 101.479,170.983 101.684,171.863 101.787 C 172.854 101.904,173.157 101.878,172.662 101.719 C 171.427 101.323,169.237 101.030,169.784 101.333 M219.583 104.077 C 219.676 105.835,219.805 107.334,219.868 107.407 C 220.086 107.657,219.937 103.761,219.675 102.318 C 219.500 101.356,219.469 101.940,219.583 104.077 M150.152 107.354 C 150.043 109.420,150.065 111.902,150.199 112.870 C 150.377 114.148,150.455 113.123,150.484 109.113 C 150.531 102.663,150.428 102.119,150.152 107.354 M236.297 109.482 C 236.878 110.520,237.899 112.895,238.564 114.758 C 239.940 118.606,240.219 118.703,238.997 114.909 C 238.135 112.231,236.524 108.867,235.723 108.074 C 235.457 107.810,235.715 108.444,236.297 109.482 M219.745 114.309 C 219.748 115.012,219.814 115.262,219.890 114.864 C 219.967 114.467,219.964 113.891,219.884 113.585 C 219.804 113.280,219.741 113.605,219.745 114.309 M150.632 115.428 C 150.618 116.308,151.806 121.635,151.844 120.863 C 151.857 120.600,151.593 119.089,151.256 117.506 C 150.920 115.923,150.639 114.988,150.632 115.428 M239.853 118.625 C 239.853 118.889,239.977 119.392,240.128 119.744 C 240.301 120.147,240.403 120.206,240.403 119.904 C 240.403 119.640,240.279 119.137,240.128 118.785 C 239.955 118.382,239.853 118.323,239.853 118.625 M217.934 122.527 C 217.603 123.810,216.856 125.975,216.273 127.338 C 215.689 128.701,215.285 129.816,215.373 129.816 C 215.950 129.816,218.923 121.358,218.643 120.516 C 218.583 120.338,218.264 121.243,217.934 122.527 M151.899 121.766 C 151.696 126.046,159.839 139.704,166.519 146.290 C 169.363 149.094,168.224 147.358,165.074 144.088 C 159.925 138.742,155.038 130.670,152.679 123.616 C 152.261 122.366,151.910 121.533,151.899 121.766 M241.161 123.741 C 241.161 124.357,241.227 124.608,241.308 124.301 C 241.388 123.993,241.388 123.489,241.308 123.181 C 241.227 122.874,241.161 123.125,241.161 123.741 M241.838 130.775 C 241.838 132.270,241.893 132.882,241.961 132.134 C 242.028 131.387,242.028 130.164,241.961 129.416 C 241.893 128.669,241.838 129.281,241.838 130.775 M213.491 132.755 C 212.659 134.181,212.036 135.404,212.106 135.474 C 212.216 135.584,213.431 133.611,214.782 131.127 C 215.840 129.182,214.839 130.444,213.491 132.755 M241.247 136.211 C 241.121 137.463,241.090 138.559,241.178 138.647 C 241.266 138.735,241.441 137.783,241.567 136.531 C 241.692 135.279,241.723 134.183,241.635 134.095 C 241.548 134.007,241.373 134.959,241.247 136.211 M209.227 139.329 C 208.744 139.988,207.991 140.923,207.552 141.407 C 207.114 141.890,206.900 142.286,207.076 142.286 C 207.253 142.286,208.071 141.351,208.893 140.208 C 209.715 139.065,210.324 138.129,210.246 138.129 C 210.168 138.129,209.710 138.669,209.227 139.329 M240.767 140.857 C 240.767 142.781,235.695 154.529,234.351 155.715 C 234.252 155.803,233.729 156.523,233.189 157.314 C 232.649 158.106,231.724 159.266,231.132 159.893 C 230.540 160.520,229.696 161.496,229.257 162.061 C 228.817 162.626,227.738 163.643,226.859 164.319 C 225.979 164.996,224.919 165.850,224.502 166.218 C 224.086 166.586,223.474 166.973,223.143 167.078 C 222.813 167.183,222.542 167.404,222.542 167.568 C 222.542 167.732,222.336 167.866,222.085 167.866 C 221.834 167.866,221.438 168.054,221.206 168.284 C 220.974 168.515,220.352 168.923,219.824 169.191 C 219.297 169.460,218.361 169.968,217.746 170.321 C 217.130 170.673,216.051 171.146,215.348 171.371 C 214.013 171.798,213.168 172.342,213.839 172.342 C 215.333 172.342,222.687 168.066,226.699 164.865 C 230.493 161.837,235.098 155.876,237.605 150.745 C 239.581 146.703,241.631 140.368,240.963 140.368 C 240.855 140.368,240.767 140.588,240.767 140.857 M203.038 146.283 C 202.261 147.074,201.697 147.722,201.785 147.722 C 201.873 147.722,202.581 147.074,203.357 146.283 C 204.134 145.492,204.697 144.844,204.610 144.844 C 204.522 144.844,203.814 145.492,203.038 146.283 M168.511 147.962 C 168.515 148.094,169.198 148.932,170.030 149.825 C 175.835 156.056,176.181 156.556,176.483 159.152 L 176.735 161.311 176.777 159.196 C 176.825 156.736,177.011 157.040,172.063 151.479 C 168.735 147.739,168.500 147.505,168.511 147.962 M194.536 155.564 C 194.063 156.185,193.732 156.744,193.800 156.808 C 193.869 156.872,194.319 156.364,194.801 155.680 C 195.895 154.128,195.698 154.041,194.536 155.564 M211.191 172.573 C 210.839 172.660,210.404 172.850,210.224 172.995 C 210.044 173.141,209.141 173.360,208.218 173.483 C 207.295 173.605,206.468 173.822,206.381 173.964 C 206.148 174.341,208.278 173.952,211.031 173.114 C 213.059 172.497,213.181 172.084,211.191 172.573 M165.293 174.251 C 152.812 174.437,153.454 174.333,151.261 176.526 C 150.691 177.096,150.057 177.935,149.852 178.390 C 149.329 179.554,149.118 313.079,149.636 315.476 C 150.015 317.233,152.461 320.041,157.252 324.221 C 158.361 325.188,160.095 326.771,161.106 327.738 C 163.223 329.765,168.852 334.963,170.264 336.196 C 171.781 337.520,173.917 339.490,176.339 341.797 C 177.570 342.970,180.131 345.337,182.030 347.058 C 183.930 348.779,187.004 351.674,188.861 353.491 C 192.151 356.711,193.726 357.820,194.932 357.769 C 195.269 357.754,194.870 357.430,194.007 357.016 C 193.118 356.590,190.998 354.847,188.886 352.805 C 186.903 350.888,183.920 348.098,182.257 346.603 C 180.593 345.108,177.718 342.446,175.867 340.687 C 174.016 338.928,171.216 336.338,169.644 334.931 C 165.613 331.325,163.286 329.200,160.517 326.597 C 159.195 325.354,157.394 323.705,156.515 322.934 C 153.675 320.442,150.264 316.753,150.029 315.920 C 149.903 315.473,149.800 284.604,149.800 247.322 L 149.800 179.536 150.541 178.257 C 150.948 177.554,151.944 176.475,152.754 175.859 L 154.227 174.740 165.279 174.648 C 171.796 174.594,176.458 174.430,176.639 174.248 C 176.808 174.079,176.882 173.972,176.803 174.011 C 176.723 174.050,171.544 174.157,165.293 174.251 M193.554 174.336 C 193.758 174.465,196.299 174.547,199.201 174.518 C 204.884 174.461,204.143 174.326,197.391 174.187 C 195.077 174.140,193.350 174.206,193.554 174.336 M264.748 200.135 C 246.849 218.303,226.481 227.505,202.238 228.377 L 200.000 228.457 199.999 291.287 L 199.998 354.117 200.080 291.413 L 200.161 228.709 205.516 228.481 C 210.674 228.261,212.418 228.093,217.266 227.343 C 219.462 227.004,222.396 226.270,223.661 225.744 C 224.776 225.280,227.449 224.432,228.857 224.095 C 229.604 223.916,230.216 223.637,230.216 223.475 C 230.216 223.314,230.520 223.181,230.892 223.181 C 231.263 223.181,232.091 222.917,232.730 222.594 C 233.370 222.270,234.396 221.776,235.012 221.495 C 237.929 220.165,239.805 219.222,241.567 218.204 C 242.622 217.595,243.989 216.846,244.604 216.541 C 245.220 216.237,245.914 215.807,246.146 215.588 C 246.378 215.368,246.700 215.188,246.861 215.188 C 247.022 215.188,248.343 214.366,249.796 213.362 C 252.831 211.264,252.673 211.383,254.357 209.920 C 255.060 209.308,255.721 208.804,255.826 208.800 C 255.931 208.796,256.363 208.499,256.786 208.140 C 257.208 207.781,258.345 206.813,259.313 205.991 C 262.423 203.345,270.588 194.854,269.811 195.074 C 269.752 195.091,267.474 197.368,264.748 200.135 M199.520 355.031 C 199.520 355.328,199.197 355.715,198.801 355.891 C 197.582 356.434,195.719 357.904,196.582 357.642 C 198.441 357.079,200.325 355.294,199.709 354.679 C 199.605 354.575,199.520 354.733,199.520 355.031 " stroke="none" fill="#f3b4ad" fill-rule="evenodd"></path><path id="path2" d="M201.552 43.325 C 201.551 44.908,201.605 45.596,201.672 44.854 C 201.740 44.112,201.740 42.817,201.674 41.976 C 201.608 41.135,201.553 41.743,201.552 43.325 M201.861 49.241 C 201.861 50.384,201.919 50.851,201.990 50.280 C 202.061 49.708,202.061 48.773,201.990 48.201 C 201.919 47.630,201.861 48.098,201.861 49.241 M168.293 50.200 C 168.293 51.519,168.349 52.058,168.418 51.399 C 168.487 50.739,168.487 49.660,168.418 49.001 C 168.349 48.341,168.293 48.881,168.293 50.200 M179.175 51.799 C 179.175 53.645,179.228 54.400,179.292 53.477 C 179.357 52.554,179.357 51.043,179.292 50.120 C 179.228 49.197,179.175 49.952,179.175 51.799 M190.968 51.319 C 190.971 52.022,191.037 52.273,191.113 51.875 C 191.190 51.477,191.187 50.901,191.107 50.596 C 191.027 50.290,190.964 50.616,190.968 51.319 M202.174 57.234 C 202.174 58.201,202.234 58.597,202.307 58.114 C 202.381 57.630,202.381 56.839,202.307 56.355 C 202.234 55.871,202.174 56.267,202.174 57.234 M191.298 61.551 C 191.301 62.430,191.363 62.752,191.436 62.266 C 191.510 61.780,191.508 61.060,191.432 60.667 C 191.356 60.274,191.296 60.671,191.298 61.551 M202.503 65.068 C 202.504 66.299,202.562 66.763,202.631 66.100 C 202.701 65.437,202.699 64.429,202.629 63.862 C 202.558 63.294,202.502 63.837,202.503 65.068 M178.833 65.548 C 178.833 66.515,178.893 66.910,178.966 66.427 C 179.039 65.943,179.039 65.152,178.966 64.668 C 178.893 64.185,178.833 64.580,178.833 65.548 M154.197 66.667 C 154.201 67.370,154.266 67.620,154.343 67.222 C 154.419 66.825,154.416 66.249,154.336 65.944 C 154.256 65.638,154.194 65.963,154.197 66.667 M191.634 72.262 C 191.634 73.581,191.691 74.121,191.760 73.461 C 191.829 72.802,191.829 71.723,191.760 71.063 C 191.691 70.404,191.634 70.943,191.634 72.262 M202.817 73.062 C 202.819 74.117,202.878 74.510,202.950 73.935 C 203.021 73.360,203.019 72.497,202.946 72.017 C 202.873 71.536,202.815 72.006,202.817 73.062 M178.504 76.419 C 178.504 77.210,178.567 77.534,178.643 77.138 C 178.719 76.743,178.719 76.095,178.643 75.699 C 178.567 75.304,178.504 75.627,178.504 76.419 M166.987 77.858 C 166.991 78.561,167.056 78.811,167.133 78.414 C 167.209 78.016,167.206 77.440,167.126 77.135 C 167.046 76.829,166.984 77.154,166.987 77.858 M203.137 81.375 C 203.138 82.430,203.198 82.823,203.269 82.248 C 203.340 81.674,203.339 80.810,203.266 80.330 C 203.193 79.850,203.135 80.320,203.137 81.375 M191.934 84.732 C 191.934 85.524,191.996 85.847,192.072 85.452 C 192.148 85.056,192.148 84.408,192.072 84.013 C 191.996 83.617,191.934 83.941,191.934 84.732 M178.189 85.212 C 178.191 86.091,178.253 86.413,178.327 85.927 C 178.400 85.441,178.398 84.721,178.323 84.328 C 178.247 83.935,178.187 84.333,178.189 85.212 M203.460 87.930 C 203.460 89.073,203.518 89.540,203.589 88.969 C 203.660 88.397,203.660 87.462,203.589 86.890 C 203.518 86.319,203.460 86.787,203.460 87.930 M166.678 87.770 C 166.681 88.649,166.743 88.971,166.816 88.485 C 166.890 87.999,166.888 87.279,166.812 86.886 C 166.736 86.493,166.676 86.890,166.678 87.770 M218.212 91.468 C 218.096 91.656,218.088 91.895,218.193 92.001 C 218.299 92.107,218.385 92.008,218.385 91.783 C 218.385 91.530,218.631 91.436,219.025 91.540 C 219.377 91.632,219.585 91.576,219.486 91.417 C 219.241 91.021,218.470 91.052,218.212 91.468 M177.869 94.165 C 177.872 95.044,177.934 95.366,178.007 94.880 C 178.081 94.394,178.079 93.674,178.003 93.281 C 177.927 92.888,177.867 93.285,177.869 94.165 M221.263 92.826 C 221.263 92.905,221.791 93.373,222.437 93.865 C 223.082 94.357,223.510 94.597,223.386 94.397 C 223.133 93.988,221.263 92.604,221.263 92.826 M203.776 94.804 C 203.778 95.859,203.838 96.252,203.909 95.678 C 203.980 95.103,203.978 94.240,203.906 93.759 C 203.833 93.279,203.774 93.749,203.776 94.804 M192.240 95.604 C 192.240 96.219,192.306 96.471,192.387 96.163 C 192.467 95.855,192.467 95.352,192.387 95.044 C 192.306 94.736,192.240 94.988,192.240 95.604 M225.899 96.563 C 226.586 97.266,227.220 97.842,227.308 97.842 C 227.396 97.842,226.906 97.266,226.219 96.563 C 225.532 95.859,224.898 95.284,224.810 95.284 C 224.722 95.284,225.212 95.859,225.899 96.563 M176.319 100.480 L 175.380 101.519 176.419 100.580 C 176.990 100.063,177.458 99.596,177.458 99.540 C 177.458 99.293,177.194 99.511,176.319 100.480 M232.007 102.482 C 232.325 102.968,232.641 103.195,232.710 102.988 C 232.807 102.699,232.943 102.700,233.292 102.990 C 233.543 103.198,233.837 103.280,233.946 103.171 C 234.267 102.850,233.361 101.967,232.805 102.059 C 232.524 102.105,232.099 102.020,231.861 101.871 C 231.594 101.704,231.650 101.938,232.007 102.482 M150.680 104.716 C 150.684 105.420,150.749 105.670,150.826 105.272 C 150.902 104.874,150.899 104.299,150.819 103.993 C 150.739 103.687,150.677 104.013,150.680 104.716 M235.262 107.153 C 235.150 107.448,235.347 107.809,235.763 108.068 C 236.351 108.434,236.399 108.430,236.094 108.045 C 235.898 107.797,235.672 107.385,235.593 107.130 C 235.470 106.736,235.421 106.739,235.262 107.153 M219.745 110.791 C 219.748 111.495,219.814 111.745,219.890 111.347 C 219.967 110.949,219.964 110.374,219.884 110.068 C 219.804 109.763,219.741 110.088,219.745 110.791 M292.059 130.775 C 292.059 134.029,292.107 135.360,292.165 133.733 C 292.223 132.106,292.223 129.444,292.165 127.818 C 292.107 126.191,292.059 127.522,292.059 130.775 M242.138 132.214 C 242.140 133.094,242.202 133.415,242.276 132.929 C 242.349 132.443,242.347 131.724,242.271 131.331 C 242.196 130.937,242.135 131.335,242.138 132.214 M205.906 142.846 L 203.837 145.004 205.995 142.935 C 207.182 141.797,208.153 140.826,208.153 140.777 C 208.153 140.541,207.828 140.841,205.906 142.846 M165.947 145.004 C 167.080 146.147,168.079 147.082,168.167 147.082 C 168.255 147.082,167.400 146.147,166.267 145.004 C 165.134 143.861,164.135 142.926,164.047 142.926 C 163.959 142.926,164.814 143.861,165.947 145.004 M200.939 148.122 L 200.000 149.161 201.039 148.222 C 201.611 147.705,202.078 147.237,202.078 147.182 C 202.078 146.935,201.815 147.153,200.939 148.122 M169.464 148.521 C 170.061 149.137,170.621 149.640,170.709 149.640 C 170.797 149.640,170.381 149.137,169.784 148.521 C 169.188 147.906,168.628 147.402,168.540 147.402 C 168.452 147.402,168.868 147.906,169.464 148.521 M238.297 149.647 C 237.928 150.523,237.693 151.239,237.775 151.239 C 237.991 151.239,239.247 148.333,239.096 148.182 C 239.027 148.113,238.667 148.772,238.297 149.647 M172.662 152.038 C 173.258 152.654,173.818 153.157,173.906 153.157 C 173.994 153.157,173.578 152.654,172.982 152.038 C 172.385 151.423,171.825 150.919,171.737 150.919 C 171.649 150.919,172.065 151.423,172.662 152.038 M173.941 153.577 C 173.941 153.632,174.408 154.100,174.980 154.616 L 176.019 155.556 175.080 154.516 C 174.205 153.548,173.941 153.330,173.941 153.577 M176.959 165.468 C 176.958 170.216,177.003 172.203,177.057 169.883 C 177.112 167.564,177.112 163.679,177.058 161.250 C 177.003 158.822,176.959 160.719,176.959 165.468 M192.940 165.947 C 192.940 169.376,192.987 170.779,193.044 169.065 C 193.102 167.350,193.102 164.544,193.044 162.830 C 192.987 161.115,192.940 162.518,192.940 165.947 M229.391 162.573 C 228.322 163.705,227.686 164.504,227.978 164.348 C 228.458 164.091,231.689 160.511,231.440 160.512 C 231.382 160.513,230.460 161.440,229.391 162.573 M225.721 165.716 C 225.096 166.283,224.161 167.070,223.643 167.464 L 222.702 168.182 223.826 167.557 C 224.795 167.018,227.403 164.653,227.001 164.677 C 226.923 164.682,226.347 165.149,225.721 165.716 M283.345 172.196 C 282.810 173.372,282.912 173.623,283.491 172.554 C 283.762 172.055,283.923 171.586,283.850 171.513 C 283.777 171.440,283.550 171.747,283.345 172.196 M192.806 173.504 C 192.806 174.187,193.373 174.903,193.909 174.895 C 194.094 174.892,194.039 174.760,193.787 174.601 C 193.536 174.442,193.295 174.071,193.252 173.777 C 193.135 172.982,192.806 172.780,192.806 173.504 M160.251 174.820 C 163.186 174.872,168.078 174.872,171.123 174.820 C 174.167 174.767,171.767 174.724,165.787 174.724 C 159.808 174.724,157.317 174.767,160.251 174.820 M197.522 174.818 C 198.797 174.878,200.883 174.878,202.158 174.818 C 203.433 174.757,202.390 174.707,199.840 174.707 C 197.290 174.707,196.247 174.757,197.522 174.818 M151.379 177.218 L 150.440 178.257 151.479 177.318 C 152.447 176.443,152.665 176.179,152.418 176.179 C 152.363 176.179,151.895 176.647,151.379 177.218 M279.532 180.096 C 278.192 182.356,277.509 183.682,278.079 182.918 C 278.844 181.892,280.467 179.057,280.288 179.057 C 280.211 179.057,279.871 179.524,279.532 180.096 M150.034 180.655 C 150.034 181.271,150.100 181.523,150.180 181.215 C 150.261 180.907,150.261 180.404,150.180 180.096 C 150.100 179.788,150.034 180.040,150.034 180.655 M274.210 188.569 C 273.561 189.580,273.365 190.014,273.773 189.533 C 274.580 188.584,275.737 186.731,275.523 186.731 C 275.450 186.731,274.859 187.558,274.210 188.569 M266.816 197.522 C 265.952 198.533,264.522 200.165,263.638 201.149 C 262.741 202.146,263.034 201.910,264.301 200.616 C 266.452 198.416,268.786 195.683,268.513 195.683 C 268.444 195.683,267.680 196.511,266.816 197.522 M259.772 204.716 L 258.833 205.755 259.872 204.816 C 260.444 204.300,260.911 203.832,260.911 203.777 C 260.911 203.530,260.647 203.748,259.772 204.716 M200.723 228.204 C 201.121 228.280,201.696 228.277,202.002 228.197 C 202.308 228.117,201.982 228.055,201.279 228.058 C 200.576 228.062,200.325 228.127,200.723 228.204 M149.786 250.360 C 149.786 257.658,149.828 260.643,149.880 256.994 C 149.931 253.345,149.931 247.374,149.880 243.725 C 149.828 240.076,149.786 243.062,149.786 250.360 M154.436 320.803 C 154.436 320.859,154.904 321.326,155.476 321.843 L 156.515 322.782 155.576 321.743 C 154.700 320.774,154.436 320.556,154.436 320.803 M157.954 324.001 C 157.954 324.056,158.421 324.524,158.993 325.040 L 160.032 325.979 159.093 324.940 C 158.217 323.971,157.954 323.754,157.954 324.001 M165.148 330.573 C 166.411 331.971,171.362 336.396,170.743 335.574 C 170.480 335.223,169.906 334.648,169.468 334.295 C 169.030 333.942,168.453 333.437,168.185 333.173 C 166.616 331.628,164.342 329.681,165.148 330.573 M175.859 340.687 C 176.992 341.831,177.991 342.766,178.079 342.766 C 178.167 342.766,177.312 341.831,176.179 340.687 C 175.046 339.544,174.047 338.609,173.959 338.609 C 173.871 338.609,174.726 339.544,175.859 340.687 M179.057 343.505 C 179.057 343.560,179.524 344.028,180.096 344.544 L 181.135 345.484 180.196 344.444 C 179.321 343.476,179.057 343.258,179.057 343.505 M182.561 346.683 C 183.886 348.094,184.173 348.348,184.173 348.108 C 184.173 348.057,183.489 347.373,182.654 346.589 L 181.135 345.164 182.561 346.683 M188.169 351.983 C 190.104 353.972,192.118 355.813,192.646 356.073 L 193.605 356.546 192.694 355.841 C 192.193 355.454,191.114 354.492,190.296 353.704 C 185.837 349.411,185.048 348.772,188.169 351.983 " stroke="none" fill="#ea8b86" fill-rule="evenodd"></path><path id="path3" d="M159.722 35.703 C 158.364 36.193,157.872 36.688,158.107 37.330 C 158.187 37.550,158.118 37.730,157.952 37.730 C 157.238 37.730,156.687 39.792,156.365 43.678 C 156.177 45.946,155.944 48.449,155.847 49.241 L 155.671 50.679 156.401 49.306 C 156.965 48.244,157.052 47.807,156.784 47.378 C 156.223 46.480,156.851 40.412,157.631 39.195 C 157.978 38.653,158.265 38.349,158.268 38.520 C 158.271 38.691,158.524 38.476,158.830 38.041 C 159.137 37.606,159.347 37.126,159.298 36.974 C 159.162 36.556,160.262 35.833,161.052 35.822 C 161.438 35.816,161.842 35.667,161.950 35.492 C 162.218 35.058,161.260 35.150,159.722 35.703 M162.430 35.492 C 162.430 35.667,162.970 35.815,163.629 35.819 C 164.614 35.825,165.106 36.091,166.385 37.311 L 167.942 38.797 167.890 48.063 C 167.855 54.200,167.717 57.555,167.479 57.998 C 167.274 58.382,167.098 60.513,167.068 62.987 C 167.040 65.363,166.939 71.551,166.845 76.739 C 166.751 81.926,166.728 84.732,166.795 82.974 C 166.861 81.215,167.130 75.460,167.393 70.184 C 167.655 64.908,168.040 55.666,168.247 49.647 L 168.623 38.702 167.123 37.222 C 165.488 35.611,162.430 34.483,162.430 35.492 M183.186 35.461 C 179.726 36.579,179.464 37.672,179.264 51.799 C 179.176 58.042,179.214 62.790,179.348 62.350 C 179.549 61.692,179.758 54.245,179.823 45.404 C 179.831 44.436,179.977 43.547,180.148 43.428 C 180.347 43.289,180.331 42.929,180.103 42.429 C 179.518 41.146,180.849 37.235,182.097 36.566 C 184.212 35.434,187.370 35.434,187.370 36.567 C 187.370 36.780,187.667 36.977,188.030 37.004 C 188.943 37.073,188.646 36.391,187.527 35.845 C 186.392 35.293,184.284 35.106,183.186 35.461 M204.956 35.587 C 203.918 36.071,203.648 36.353,202.758 37.879 C 202.078 39.044,201.350 42.982,201.910 42.463 C 202.042 42.341,202.195 41.573,202.250 40.756 C 202.305 39.940,202.577 39.021,202.854 38.715 C 203.131 38.409,203.357 37.947,203.357 37.689 C 203.357 37.183,203.962 36.451,204.380 36.451 C 204.521 36.451,204.636 36.675,204.636 36.949 C 204.636 37.223,204.767 37.367,204.926 37.269 C 205.085 37.170,205.143 36.811,205.054 36.471 C 204.871 35.771,206.704 35.218,207.751 35.657 C 208.060 35.787,209.321 36.011,210.552 36.155 C 214.466 36.613,218.418 37.476,220.878 38.410 C 221.282 38.564,221.930 38.675,222.317 38.657 C 224.112 38.576,215.969 36.480,210.552 35.629 C 207.149 35.094,206.033 35.086,204.956 35.587 M188.982 37.482 C 188.975 37.786,189.256 38.505,189.607 39.081 C 190.422 40.417,190.423 39.537,189.608 38.050 C 189.233 37.364,188.990 37.144,188.982 37.482 M224.460 39.221 C 225.076 39.518,226.371 40.106,227.338 40.528 C 228.305 40.951,229.528 41.488,230.056 41.724 C 231.594 42.409,235.477 43.806,235.818 43.796 C 236.155 43.787,233.639 42.674,228.297 40.469 C 224.757 39.008,222.478 38.267,224.460 39.221 M190.498 46.043 C 190.585 49.297,190.708 52.018,190.772 52.092 C 190.973 52.324,190.818 44.700,190.574 42.366 C 190.443 41.117,190.409 42.743,190.498 46.043 M223.432 41.002 C 223.971 41.262,224.259 41.257,224.535 40.981 C 224.819 40.696,224.646 40.613,223.805 40.629 C 222.769 40.649,222.746 40.672,223.432 41.002 M201.866 45.084 C 201.866 46.403,201.923 46.942,201.992 46.283 C 202.060 45.624,202.060 44.544,201.992 43.885 C 201.923 43.225,201.866 43.765,201.866 45.084 M236.578 44.245 C 236.815 44.530,237.171 44.767,237.369 44.771 C 237.568 44.775,238.090 45.060,238.529 45.404 C 238.969 45.748,239.568 46.032,239.861 46.036 C 240.155 46.040,240.450 46.209,240.517 46.411 C 240.584 46.613,240.848 46.707,241.103 46.620 C 241.371 46.528,240.424 45.884,238.857 45.093 C 237.366 44.341,236.340 43.959,236.578 44.245 M235.651 45.404 C 235.651 45.580,235.859 45.723,236.112 45.723 C 236.366 45.723,236.662 45.580,236.771 45.404 C 236.879 45.228,236.672 45.084,236.310 45.084 C 235.948 45.084,235.651 45.228,235.651 45.404 M241.835 46.919 C 241.951 47.107,242.874 47.726,243.885 48.293 C 246.017 49.491,250.074 52.360,251.512 53.687 C 252.058 54.191,252.813 54.701,253.190 54.821 C 253.568 54.941,253.877 55.178,253.877 55.348 C 253.877 55.517,254.145 55.759,254.473 55.886 C 255.137 56.142,258.303 58.815,260.742 61.179 C 261.620 62.030,262.593 62.863,262.904 63.029 C 263.215 63.196,263.469 63.543,263.469 63.800 C 263.469 64.058,263.621 64.269,263.807 64.269 C 263.993 64.269,264.568 64.732,265.086 65.299 C 265.604 65.866,266.027 66.168,266.027 65.970 C 266.027 64.970,254.230 54.815,248.373 50.775 C 245.053 48.485,241.512 46.396,241.835 46.919 M202.194 51.159 C 202.194 52.830,202.247 53.513,202.313 52.678 C 202.379 51.843,202.379 50.476,202.313 49.640 C 202.247 48.805,202.194 49.488,202.194 51.159 M242.046 50.067 C 242.046 50.345,242.217 50.516,242.426 50.446 C 243.019 50.249,243.117 49.560,242.553 49.560 C 242.274 49.560,242.046 49.788,242.046 50.067 M155.396 53.397 C 155.396 54.335,155.485 55.014,155.593 54.905 C 155.838 54.661,155.822 52.118,155.575 51.871 C 155.476 51.773,155.396 52.459,155.396 53.397 M191.001 55.156 C 191.000 56.739,191.054 57.426,191.121 56.684 C 191.188 55.942,191.189 54.647,191.123 53.807 C 191.057 52.966,191.002 53.573,191.001 55.156 M202.328 58.144 C 202.470 63.025,202.611 63.488,202.667 59.251 C 202.695 57.108,202.610 55.287,202.478 55.205 C 202.346 55.123,202.279 56.446,202.328 58.144 M155.073 57.101 C 155.072 57.966,154.940 59.896,154.780 61.391 C 154.361 65.306,154.099 71.105,154.411 69.544 C 154.794 67.636,155.534 55.987,155.288 55.741 C 155.171 55.624,155.075 56.236,155.073 57.101 M191.108 64.588 C 191.206 66.611,191.341 68.325,191.407 68.399 C 191.648 68.666,191.482 63.432,191.209 62.190 C 191.021 61.333,190.988 62.125,191.108 64.588 M266.347 66.439 C 266.347 66.719,271.331 73.221,272.719 74.751 C 273.083 75.153,273.381 75.609,273.381 75.764 C 273.381 75.919,273.489 76.094,273.621 76.152 C 274.222 76.419,276.259 79.313,276.259 79.899 C 276.259 80.259,276.547 80.707,276.898 80.895 C 277.250 81.084,277.538 81.438,277.538 81.683 C 277.538 81.928,277.734 82.324,277.973 82.563 C 278.212 82.803,278.767 83.712,279.207 84.585 C 279.646 85.457,280.728 87.558,281.611 89.253 C 282.494 90.947,283.286 92.530,283.371 92.770 C 283.456 93.009,283.602 93.133,283.695 93.046 C 284.081 92.682,279.230 83.486,276.105 78.657 C 273.443 74.544,266.347 65.659,266.347 66.439 M202.889 70.024 C 202.969 72.046,203.035 75.056,203.036 76.712 C 203.037 78.368,203.111 79.650,203.200 79.561 C 203.490 79.271,203.361 69.266,203.048 67.786 C 202.814 66.677,202.777 67.189,202.889 70.024 M178.806 70.663 C 178.521 84.340,177.769 98.926,177.314 99.622 C 175.327 102.654,170.846 102.882,167.626 100.116 C 167.230 99.776,166.906 99.341,166.906 99.149 C 166.906 98.958,166.776 98.801,166.617 98.801 C 166.085 98.801,166.675 100.163,167.275 100.320 C 167.600 100.405,167.866 100.647,167.866 100.857 C 167.866 101.622,170.060 102.318,172.471 102.318 C 177.027 102.318,178.418 100.419,178.416 94.200 C 178.416 92.774,178.567 89.017,178.753 85.851 C 178.939 82.686,179.044 77.146,178.987 73.541 C 178.925 69.632,178.852 68.470,178.806 70.663 M153.884 72.262 C 153.884 73.054,153.946 73.377,154.023 72.982 C 154.099 72.586,154.099 71.938,154.023 71.543 C 153.946 71.147,153.884 71.471,153.884 72.262 M191.565 80.282 C 191.585 83.521,191.709 88.114,191.839 90.488 C 191.982 93.097,192.014 90.821,191.919 84.732 C 191.833 79.193,191.709 74.600,191.644 74.527 C 191.580 74.454,191.544 77.044,191.565 80.282 M153.365 76.978 C 152.911 81.750,152.839 83.384,153.143 82.014 C 153.489 80.456,153.946 74.820,153.727 74.820 C 153.641 74.820,153.478 75.791,153.365 76.978 M203.504 85.851 C 203.907 89.982,203.850 98.898,203.415 99.681 C 202.380 101.543,198.091 102.571,195.636 101.545 C 193.985 100.855,192.492 98.770,192.481 97.138 C 192.478 96.622,192.397 96.528,192.210 96.823 C 191.938 97.252,192.106 98.831,192.454 99.121 C 192.559 99.209,192.881 99.712,193.168 100.240 C 193.965 101.705,195.770 102.480,198.161 102.383 C 201.886 102.232,202.398 102.159,202.398 101.777 C 202.398 101.567,202.700 101.183,203.070 100.925 C 203.662 100.510,204.466 96.706,204.364 94.804 C 204.041 88.782,203.661 83.973,203.497 83.816 C 203.381 83.704,203.384 84.620,203.504 85.851 M166.243 89.448 C 166.180 96.678,166.205 98.206,166.389 98.390 C 166.498 98.499,166.587 95.902,166.587 92.619 C 166.587 89.337,166.515 86.651,166.427 86.651 C 166.339 86.651,166.256 87.910,166.243 89.448 M152.080 90.272 C 151.936 91.648,151.893 92.847,151.982 92.936 C 152.219 93.173,152.595 89.837,152.457 88.720 C 152.390 88.176,152.228 88.840,152.080 90.272 M217.959 91.340 C 217.626 91.673,217.709 94.264,218.059 94.480 C 218.252 94.599,218.344 93.994,218.299 92.902 C 218.258 91.927,218.213 91.129,218.199 91.128 C 218.184 91.128,218.076 91.223,217.959 91.340 M219.824 91.606 C 220.176 91.858,220.643 92.219,220.863 92.408 C 221.105 92.616,221.263 92.627,221.263 92.437 C 221.263 92.068,219.990 91.123,219.513 91.137 C 219.332 91.143,219.472 91.354,219.824 91.606 M221.769 92.683 C 221.677 92.831,222.425 93.561,223.431 94.304 C 224.437 95.046,226.832 97.117,228.754 98.905 C 230.892 100.894,232.464 102.119,232.803 102.062 C 233.107 102.010,233.446 102.112,233.555 102.289 C 233.664 102.465,233.980 102.523,234.258 102.417 C 234.611 102.281,234.283 101.996,233.154 101.459 C 232.270 101.039,230.960 100.125,230.242 99.428 C 229.524 98.732,228.815 98.161,228.668 98.161 C 228.521 98.161,228.236 97.802,228.036 97.362 C 227.822 96.893,227.404 96.563,227.025 96.563 C 226.670 96.563,226.379 96.357,226.379 96.105 C 226.379 95.853,226.091 95.555,225.739 95.444 C 225.388 95.332,225.100 95.124,225.100 94.981 C 225.100 94.839,224.670 94.544,224.145 94.326 C 223.619 94.109,223.258 93.819,223.343 93.683 C 223.427 93.547,223.145 93.205,222.716 92.924 C 222.287 92.643,221.861 92.535,221.769 92.683 M151.410 96.984 C 151.281 98.886,151.261 100.528,151.367 100.634 C 151.472 100.740,151.559 100.146,151.559 99.316 C 151.559 98.485,151.711 97.201,151.897 96.462 C 152.111 95.611,152.127 94.827,151.940 94.323 C 151.714 93.710,151.592 94.324,151.410 96.984 M218.472 96.882 C 218.472 97.674,218.535 97.998,218.611 97.602 C 218.687 97.206,218.687 96.559,218.611 96.163 C 218.535 95.767,218.472 96.091,218.472 96.882 M284.899 95.757 C 284.895 95.930,285.171 96.793,285.511 97.676 C 286.524 100.301,288.601 107.568,289.031 109.992 C 289.172 110.783,289.434 111.863,289.613 112.390 C 290.519 115.057,291.428 121.886,291.204 124.352 C 291.095 125.555,291.150 126.299,291.348 126.299 C 291.557 126.299,291.596 128.371,291.461 132.294 C 291.348 135.592,291.226 139.728,291.191 141.487 C 291.153 143.367,290.960 144.977,290.722 145.394 C 290.499 145.784,290.338 146.503,290.365 146.992 C 290.393 147.481,290.328 148.817,290.222 149.960 L 290.029 152.038 290.483 149.800 C 291.716 143.720,291.764 143.061,291.758 132.374 C 291.751 120.269,291.552 118.390,289.321 109.353 C 287.594 102.354,284.934 94.179,284.899 95.757 M230.663 97.650 C 230.546 97.955,230.609 98.363,230.802 98.556 C 231.058 98.812,231.212 98.757,231.367 98.353 C 231.484 98.048,231.421 97.640,231.228 97.447 C 230.972 97.191,230.818 97.247,230.663 97.650 M218.516 99.921 C 218.384 100.448,218.500 101.384,218.808 102.276 L 219.318 103.757 219.132 101.519 C 218.919 98.952,218.822 98.702,218.516 99.921 M151.122 101.290 C 150.715 101.949,150.556 111.612,150.911 114.149 C 152.664 126.688,157.473 136.051,167.333 146.123 C 171.159 150.032,175.047 154.315,176.441 156.158 C 177.118 157.054,177.138 157.333,177.138 165.820 C 177.138 173.533,177.196 174.538,177.627 174.373 C 177.967 174.242,178.046 173.977,177.886 173.503 C 177.760 173.128,177.683 171.167,177.717 169.145 C 177.750 167.122,177.691 163.418,177.585 160.914 C 177.354 155.479,177.963 156.504,170.169 148.410 C 167.232 145.360,164.698 142.590,164.539 142.255 C 164.381 141.921,164.057 141.647,163.820 141.647 C 163.583 141.647,163.389 141.420,163.389 141.142 C 163.389 140.864,162.850 140.077,162.190 139.393 C 160.531 137.671,159.552 136.350,159.552 135.832 C 159.552 135.591,159.121 134.922,158.593 134.344 C 158.066 133.766,157.634 133.087,157.634 132.834 C 157.634 132.581,157.525 132.374,157.392 132.374 C 157.259 132.374,156.948 131.906,156.700 131.335 C 156.452 130.763,155.769 129.276,155.183 128.030 C 154.596 126.784,154.117 125.598,154.117 125.395 C 154.117 125.192,153.777 123.981,153.361 122.705 C 151.467 116.887,150.982 113.162,151.220 106.234 C 151.319 103.376,151.371 101.038,151.338 101.039 C 151.304 101.039,151.207 101.152,151.122 101.290 M232.693 103.024 C 232.456 103.714,233.166 104.897,234.110 105.385 C 234.601 105.639,235.271 106.384,235.598 107.040 C 235.926 107.696,236.706 109.122,237.331 110.209 C 237.956 111.295,238.571 112.662,238.697 113.246 C 238.823 113.830,239.107 114.668,239.328 115.108 C 239.549 115.548,239.963 116.938,240.247 118.199 C 240.531 119.459,240.921 120.898,241.115 121.396 C 241.309 121.894,241.653 123.885,241.880 125.819 L 242.291 129.337 242.329 126.619 C 242.356 124.627,242.199 123.463,241.743 122.261 C 241.400 121.360,241.021 119.882,240.901 118.977 C 240.781 118.072,240.558 117.255,240.405 117.160 C 240.253 117.066,240.128 116.494,240.128 115.888 C 240.128 115.283,239.997 114.788,239.836 114.788 C 239.676 114.788,239.443 114.185,239.318 113.448 C 239.194 112.711,238.893 111.909,238.651 111.666 C 238.408 111.424,238.209 110.883,238.209 110.464 C 238.209 109.353,237.580 108.151,236.906 107.975 C 236.584 107.890,236.222 107.410,236.103 106.908 C 235.823 105.734,235.072 104.876,234.323 104.876 C 233.915 104.876,233.733 104.642,233.733 104.116 C 233.733 103.218,232.921 102.365,232.693 103.024 M219.204 109.752 C 219.495 115.683,219.664 115.732,219.664 109.885 C 219.664 106.767,219.550 105.196,219.322 105.196 C 219.084 105.196,219.048 106.589,219.204 109.752 M218.738 116.459 C 218.495 117.387,218.246 118.793,218.186 119.584 C 218.051 121.351,218.163 121.075,218.864 117.925 C 219.494 115.088,219.396 113.947,218.738 116.459 M217.158 123.275 C 216.954 123.724,216.793 124.336,216.801 124.635 C 216.808 124.935,217.018 124.610,217.266 123.913 C 217.782 122.465,217.713 122.058,217.158 123.275 M215.702 126.805 C 215.352 127.716,215.518 128.071,215.997 127.437 C 216.256 127.096,216.467 126.700,216.467 126.558 C 216.467 126.100,215.902 126.282,215.702 126.805 M214.828 128.818 C 214.542 129.103,214.014 129.912,213.656 130.616 C 210.251 137.300,209.797 137.993,209.286 137.295 C 208.961 136.850,208.905 136.948,208.927 137.926 L 208.953 139.084 209.969 137.887 C 210.867 136.830,211.591 135.625,214.789 129.868 C 215.627 128.359,215.640 128.009,214.828 128.818 M242.366 132.214 C 242.366 132.654,242.495 133.014,242.652 133.014 C 243.025 133.014,243.379 132.080,243.148 131.706 C 242.799 131.142,242.366 131.424,242.366 132.214 M241.934 135.161 C 241.568 137.987,241.317 141.488,241.491 141.327 C 241.720 141.115,242.465 133.965,242.277 133.778 C 242.197 133.697,242.043 134.320,241.934 135.161 M207.594 140.253 C 206.807 141.102,206.719 141.327,207.172 141.327 C 207.336 141.327,207.778 140.895,208.153 140.368 C 208.966 139.226,208.612 139.154,207.594 140.253 M240.682 143.500 C 240.371 144.503,240.119 145.456,240.122 145.618 C 240.132 146.122,238.495 150.046,237.643 151.559 C 233.009 159.795,228.333 164.863,221.628 168.918 C 219.784 170.034,218.931 170.692,219.504 170.556 C 221.249 170.145,221.902 169.806,221.902 169.312 C 221.902 169.044,222.039 168.825,222.206 168.825 C 222.577 168.825,225.330 166.990,225.590 166.570 C 225.693 166.403,226.022 166.267,226.321 166.267 C 226.620 166.267,227.044 165.979,227.264 165.627 C 227.484 165.276,227.842 164.982,228.060 164.974 C 228.279 164.967,228.817 164.512,229.257 163.964 C 229.696 163.415,230.811 162.192,231.735 161.245 C 232.658 160.299,233.413 159.296,233.413 159.018 C 233.413 158.739,233.917 157.953,234.532 157.272 C 235.148 156.591,235.651 155.853,235.651 155.632 C 235.651 155.411,235.903 155.072,236.211 154.880 C 236.519 154.687,236.968 153.983,237.209 153.314 C 237.450 152.645,238.062 151.445,238.568 150.647 C 239.074 149.848,239.488 149.025,239.488 148.817 C 239.488 148.193,240.354 147.616,240.551 148.108 C 240.660 148.378,240.726 148.334,240.742 147.981 C 240.756 147.683,240.623 147.351,240.446 147.241 C 240.087 147.019,240.329 145.784,240.975 144.546 L 241.403 143.725 241.405 144.623 C 241.406 145.188,241.536 145.442,241.754 145.307 C 241.949 145.186,242.007 144.791,241.886 144.408 C 241.768 144.033,241.576 143.264,241.459 142.701 C 241.250 141.692,241.239 141.704,240.682 143.500 M204.876 143.402 C 204.041 144.186,203.357 144.978,203.357 145.162 C 203.357 145.346,203.034 145.650,202.638 145.836 C 202.242 146.022,201.346 146.937,200.645 147.869 C 199.940 148.808,199.193 149.494,198.969 149.409 C 198.748 149.324,198.464 149.521,198.340 149.847 C 197.940 150.891,196.851 152.305,194.804 154.436 C 192.831 156.492,192.809 156.534,192.847 158.273 L 192.886 160.032 193.134 158.323 C 193.432 156.278,192.666 157.224,204.634 144.125 C 206.928 141.613,206.995 141.414,204.876 143.402 M289.377 153.614 C 289.197 154.089,289.049 154.695,289.049 154.960 C 289.049 155.225,288.833 155.657,288.569 155.921 C 288.080 156.410,287.892 158.273,288.332 158.273 C 288.601 158.273,290.048 153.091,289.838 152.881 C 289.765 152.808,289.558 153.138,289.377 153.614 M287.130 161.055 C 287.130 162.749,287.250 162.757,287.704 161.093 C 287.959 160.159,287.933 159.881,287.578 159.744 C 287.234 159.612,287.130 159.915,287.130 161.055 M192.560 162.110 C 192.560 162.726,192.626 162.978,192.706 162.670 C 192.787 162.362,192.787 161.859,192.706 161.551 C 192.626 161.243,192.560 161.495,192.560 162.110 M285.754 162.236 C 285.624 162.569,285.592 162.917,285.684 163.009 C 285.976 163.300,286.232 162.822,286.110 162.215 C 285.998 161.659,285.981 161.660,285.754 162.236 M284.892 164.189 C 284.892 164.628,285.036 164.988,285.212 164.988 C 285.388 164.988,285.532 164.628,285.532 164.189 C 285.532 163.749,285.388 163.389,285.212 163.389 C 285.036 163.389,284.892 163.749,284.892 164.189 M285.940 165.060 C 285.540 165.565,285.220 167.226,285.522 167.226 C 285.758 167.226,286.542 164.933,286.366 164.757 C 286.309 164.700,286.117 164.836,285.940 165.060 M192.601 168.505 C 192.601 170.176,192.655 170.859,192.721 170.024 C 192.787 169.189,192.787 167.822,192.721 166.986 C 192.655 166.151,192.601 166.835,192.601 168.505 M284.462 169.211 C 284.203 170.204,284.401 170.255,284.833 169.306 C 285.034 168.866,285.074 168.505,284.923 168.505 C 284.771 168.505,284.564 168.823,284.462 169.211 M217.106 171.383 C 216.058 171.957,216.038 171.996,216.790 172.009 C 217.256 172.017,217.759 171.755,217.991 171.383 C 218.211 171.031,218.354 170.749,218.308 170.757 C 218.263 170.764,217.722 171.046,217.106 171.383 M282.974 172.051 C 282.974 172.363,281.731 175.042,280.613 177.138 C 280.379 177.578,279.771 178.781,279.262 179.813 C 278.754 180.844,278.170 181.754,277.967 181.834 C 277.763 181.915,277.502 182.366,277.387 182.837 C 277.272 183.308,276.755 184.224,276.239 184.873 C 275.722 185.522,275.300 186.196,275.300 186.369 C 275.300 186.542,274.976 186.946,274.580 187.267 C 274.185 187.587,273.657 188.245,273.407 188.729 C 273.158 189.213,272.762 189.608,272.528 189.608 C 272.294 189.608,272.098 189.932,272.093 190.328 C 272.085 191.030,270.538 193.041,268.239 195.338 C 267.610 195.968,266.997 196.748,266.879 197.073 C 266.760 197.397,266.394 197.733,266.065 197.819 C 265.736 197.905,265.270 198.359,265.029 198.828 C 264.788 199.297,263.943 200.334,263.151 201.133 C 262.359 201.932,261.509 202.867,261.262 203.211 C 259.922 205.079,268.724 195.673,271.148 192.646 C 276.285 186.233,284.696 171.703,283.271 171.703 C 283.107 171.703,282.974 171.859,282.974 172.051 M213.269 172.841 C 211.367 173.429,211.090 173.586,211.928 173.602 C 212.885 173.619,215.827 172.542,215.827 172.174 C 215.827 172.091,215.791 172.040,215.747 172.062 C 215.703 172.083,214.588 172.434,213.269 172.841 M192.534 173.160 C 192.439 175.090,192.893 175.296,197.131 175.241 C 199.222 175.215,200.999 175.127,201.079 175.046 C 201.160 174.966,199.493 174.900,197.375 174.900 C 193.209 174.900,192.966 174.808,192.722 173.141 L 192.582 172.182 192.534 173.160 M206.555 174.430 L 204.157 174.825 206.276 174.863 C 207.805 174.890,208.506 174.767,208.793 174.420 C 209.012 174.157,209.137 173.962,209.072 173.988 C 209.006 174.014,207.874 174.213,206.555 174.430 M175.060 174.900 L 173.461 175.119 174.961 175.170 C 175.786 175.197,176.550 175.076,176.659 174.900 C 176.767 174.724,176.812 174.603,176.757 174.631 C 176.703 174.658,175.939 174.779,175.060 174.900 M152.872 176.182 C 149.822 178.593,150.124 173.960,150.086 218.851 C 150.067 240.665,150.101 258.082,150.161 257.554 C 150.221 257.026,150.308 239.245,150.355 218.041 L 150.440 179.486 151.344 178.300 C 152.574 176.689,154.620 175.419,156.355 175.190 L 157.794 175.001 156.144 174.950 C 154.665 174.905,154.326 175.033,152.872 176.182 M163.309 175.136 C 164.233 175.200,165.743 175.200,166.667 175.136 C 167.590 175.071,166.835 175.018,164.988 175.018 C 163.141 175.018,162.386 175.071,163.309 175.136 M156.182 176.628 C 155.608 177.049,155.625 177.067,156.446 176.910 C 156.929 176.818,157.402 176.615,157.498 176.461 C 157.772 176.016,156.860 176.133,156.182 176.628 M259.106 204.556 C 257.597 206.184,257.592 206.728,259.099 205.292 C 259.920 204.510,260.592 203.826,260.592 203.773 C 260.592 203.399,259.786 203.823,259.106 204.556 M256.390 207.212 C 255.675 207.835,255.672 207.852,256.337 207.530 C 256.723 207.344,257.127 207.048,257.235 206.873 C 257.550 206.364,257.205 206.503,256.390 207.212 M253.722 209.211 C 253.373 209.421,252.905 209.833,252.682 210.127 C 252.460 210.420,251.846 210.756,251.319 210.871 C 250.539 211.043,249.883 211.990,250.544 211.990 C 250.784 211.990,254.516 209.119,254.516 208.934 C 254.516 208.747,254.465 208.765,253.722 209.211 M248.226 213.063 C 247.729 213.477,246.783 213.992,246.123 214.207 C 245.464 214.422,244.924 214.791,244.924 215.027 C 244.924 215.264,244.502 215.549,243.987 215.663 C 243.471 215.776,242.878 216.075,242.669 216.328 C 242.459 216.580,242.034 216.787,241.723 216.787 C 241.117 216.787,239.542 217.914,239.808 218.157 C 240.003 218.334,246.386 214.866,248.597 213.381 C 249.474 212.792,249.952 212.310,249.661 212.310 C 249.369 212.310,248.723 212.649,248.226 213.063 M237.711 219.174 C 237.370 219.433,236.822 219.649,236.494 219.654 C 236.167 219.660,235.375 219.945,234.736 220.287 C 233.075 221.177,230.632 222.222,230.213 222.222 C 229.809 222.222,225.739 224.141,225.739 224.331 C 225.739 224.399,226.711 224.083,227.898 223.627 C 229.085 223.172,230.416 222.684,230.855 222.543 C 233.300 221.758,239.509 218.705,238.661 218.705 C 238.480 218.705,238.052 218.916,237.711 219.174 M224.141 224.371 C 223.701 224.450,223.197 224.665,223.022 224.849 C 222.614 225.274,224.482 224.871,224.924 224.438 C 225.091 224.274,225.163 224.160,225.084 224.184 C 225.005 224.208,224.580 224.292,224.141 224.371 M219.270 225.540 C 219.028 225.782,218.262 226.060,217.568 226.157 C 216.875 226.255,214.293 226.617,211.831 226.962 C 209.369 227.307,207.786 227.605,208.313 227.623 C 211.279 227.725,221.972 225.864,221.206 225.378 C 220.574 224.977,219.765 225.045,219.270 225.540 M202.718 227.658 L 200.639 227.818 202.078 228.049 C 202.870 228.176,204.309 228.168,205.276 228.031 C 207.656 227.695,205.784 227.422,202.718 227.658 M199.677 290.967 C 199.677 324.644,199.714 338.421,199.760 321.583 C 199.806 304.744,199.806 277.190,199.760 260.352 C 199.714 243.513,199.677 257.290,199.677 290.967 M150.098 289.688 L 150.120 316.067 151.079 317.185 C 152.416 318.743,154.264 320.574,156.515 322.570 C 157.570 323.506,159.297 325.088,160.352 326.086 C 161.407 327.084,163.205 328.710,164.349 329.699 C 166.782 331.805,167.512 332.481,173.461 338.122 C 175.923 340.456,178.655 342.996,179.532 343.765 C 182.007 345.937,188.989 352.382,190.316 353.720 C 191.772 355.189,194.986 357.474,195.596 357.474 C 196.783 357.474,199.496 355.090,199.508 354.037 C 199.515 353.465,199.376 352.998,199.201 352.998 C 199.025 352.998,198.881 353.339,198.881 353.757 C 198.881 354.686,196.493 356.832,195.457 356.833 C 194.769 356.835,193.873 356.171,191.679 354.037 C 191.091 353.465,190.479 352.998,190.317 352.998 C 190.156 352.998,188.219 351.199,186.013 349.001 C 183.807 346.803,181.843 345.004,181.649 345.004 C 181.456 345.004,179.755 343.493,177.870 341.647 C 175.985 339.800,174.382 338.289,174.308 338.289 C 174.234 338.289,173.061 337.138,171.703 335.731 C 170.344 334.325,169.075 333.173,168.882 333.173 C 168.690 333.173,168.131 332.660,167.640 332.032 C 167.148 331.404,166.361 330.687,165.890 330.437 C 165.419 330.187,164.941 329.694,164.829 329.340 C 164.717 328.986,164.447 328.697,164.228 328.697 C 163.490 328.697,151.705 317.460,151.150 316.227 C 150.904 315.680,150.773 310.942,150.735 301.199 C 150.705 293.373,150.544 281.647,150.378 275.140 C 150.099 264.222,150.078 265.344,150.098 289.688 M195.185 354.446 C 194.584 354.919,194.589 354.932,195.339 354.846 C 195.765 354.796,196.172 354.576,196.245 354.357 C 196.424 353.813,195.937 353.854,195.185 354.446 " stroke="none" fill="#eb746e" fill-rule="evenodd"></path><path id="path4" d="M179.162 46.523 C 179.163 47.754,179.221 48.218,179.290 47.555 C 179.359 46.891,179.358 45.884,179.288 45.317 C 179.217 44.749,179.160 45.292,179.162 46.523 M190.968 49.081 C 190.971 49.784,191.037 50.034,191.113 49.637 C 191.190 49.239,191.187 48.663,191.107 48.358 C 191.027 48.052,190.964 48.377,190.968 49.081 M191.288 58.993 C 191.291 59.696,191.357 59.946,191.433 59.549 C 191.510 59.151,191.507 58.575,191.427 58.270 C 191.347 57.964,191.284 58.289,191.288 58.993 M202.153 59.792 C 202.153 60.408,202.218 60.659,202.299 60.352 C 202.379 60.044,202.379 59.540,202.299 59.233 C 202.218 58.925,202.153 59.177,202.153 59.792 M191.601 69.065 C 191.601 69.680,191.667 69.932,191.747 69.624 C 191.828 69.317,191.828 68.813,191.747 68.505 C 191.667 68.197,191.601 68.449,191.601 69.065 M202.820 76.739 C 202.820 77.882,202.878 78.349,202.949 77.778 C 203.020 77.206,203.020 76.271,202.949 75.699 C 202.878 75.128,202.820 75.596,202.820 76.739 M167.009 80.895 C 167.009 82.038,167.067 82.506,167.138 81.934 C 167.209 81.363,167.209 80.428,167.138 79.856 C 167.067 79.285,167.009 79.752,167.009 80.895 M191.942 81.855 C 191.942 82.822,192.002 83.217,192.076 82.734 C 192.149 82.250,192.149 81.459,192.076 80.975 C 192.002 80.492,191.942 80.887,191.942 81.855 M166.674 90.488 C 166.674 91.279,166.736 91.603,166.812 91.207 C 166.889 90.811,166.889 90.164,166.812 89.768 C 166.736 89.373,166.674 89.696,166.674 90.488 M192.276 92.246 C 192.277 93.653,192.333 94.189,192.401 93.437 C 192.468 92.685,192.467 91.534,192.399 90.879 C 192.330 90.224,192.275 90.839,192.276 92.246 M203.438 90.967 C 203.441 91.671,203.507 91.921,203.583 91.523 C 203.660 91.125,203.657 90.550,203.577 90.244 C 203.497 89.938,203.434 90.264,203.438 90.967 M224.460 95.384 C 224.460 95.439,224.928 95.906,225.500 96.423 L 226.539 97.362 225.600 96.323 C 224.724 95.354,224.460 95.137,224.460 95.384 M229.576 99.860 C 229.576 99.915,230.044 100.383,230.616 100.899 L 231.655 101.839 230.716 100.799 C 229.840 99.831,229.576 99.613,229.576 99.860 M219.745 108.553 C 219.748 109.257,219.814 109.507,219.890 109.109 C 219.967 108.711,219.964 108.136,219.884 107.830 C 219.804 107.524,219.741 107.850,219.745 108.553 M292.007 137.650 C 292.011 138.353,292.076 138.603,292.153 138.206 C 292.229 137.808,292.226 137.232,292.146 136.927 C 292.066 136.621,292.004 136.946,292.007 137.650 M196.962 152.678 C 196.186 153.469,195.622 154.117,195.710 154.117 C 195.798 154.117,196.506 153.469,197.282 152.678 C 198.059 151.886,198.622 151.239,198.534 151.239 C 198.446 151.239,197.739 151.886,196.962 152.678 M149.791 215.667 C 149.791 227.626,149.831 232.472,149.880 226.435 C 149.929 220.399,149.929 210.615,149.880 204.693 C 149.831 198.770,149.791 203.709,149.791 215.667 M268.887 195.604 C 266.043 198.683,265.594 199.201,265.765 199.201 C 265.866 199.201,266.915 198.122,268.095 196.803 C 269.276 195.484,270.186 194.404,270.118 194.404 C 270.050 194.404,269.496 194.944,268.887 195.604 M149.792 287.930 C 149.792 301.471,149.832 306.964,149.880 300.136 C 149.928 293.309,149.928 282.229,149.880 275.516 C 149.832 268.802,149.792 274.388,149.792 287.930 " stroke="none" fill="#eca48e" fill-rule="evenodd"></path></g></svg>