<svg id="svg" version="1.1" xmlns="http://www.w3.org/2000/svg" xmlns:xlink="http://www.w3.org/1999/xlink" width="400" height="400" viewBox="0, 0, 400,400"><g id="svgg"><path id="path0" d="M156.317 2.351 C 156.317 2.566,155.953 2.742,155.508 2.742 C 154.298 2.742,153.094 3.511,153.332 4.131 C 153.447 4.431,153.372 4.780,153.166 4.908 C 152.960 5.035,152.777 4.820,152.760 4.431 C 152.742 4.015,152.647 3.926,152.531 4.214 C 152.422 4.485,152.171 4.607,151.974 4.485 C 151.777 4.363,151.616 4.549,151.616 4.897 C 151.616 5.246,151.792 5.422,152.008 5.289 C 152.223 5.156,152.400 5.332,152.400 5.681 C 152.400 6.029,152.220 6.203,152.000 6.067 C 151.327 5.652,150.456 8.414,150.053 12.236 C 149.551 17.001,149.550 18.009,150.049 17.238 C 150.356 16.763,150.430 16.819,150.435 17.532 C 150.438 18.020,150.201 18.413,149.904 18.413 C 149.185 18.413,148.935 20.072,148.466 27.965 C 148.250 31.602,147.997 34.702,147.903 34.854 C 147.809 35.006,147.702 36.782,147.665 38.800 C 147.628 40.818,147.447 42.998,147.261 43.645 C 147.076 44.291,146.733 47.558,146.499 50.905 C 146.265 54.253,145.908 57.787,145.705 58.760 C 145.503 59.733,145.169 62.644,144.964 65.230 C 144.759 67.816,144.412 71.871,144.192 74.241 C 143.152 85.471,142.927 89.875,143.163 94.417 C 143.303 97.111,143.428 99.579,143.440 99.902 C 143.453 100.225,143.694 101.459,143.976 102.644 C 144.258 103.830,144.704 105.747,144.967 106.905 C 145.230 108.064,145.687 109.474,145.982 110.040 C 146.277 110.605,146.519 111.384,146.521 111.771 C 146.523 112.417,148.667 117.446,149.729 119.295 C 149.976 119.726,150.601 120.919,151.118 121.947 C 151.634 122.975,152.222 123.714,152.424 123.589 C 152.626 123.464,152.791 123.637,152.791 123.973 C 152.791 124.309,152.987 124.584,153.225 124.584 C 153.464 124.584,153.556 124.853,153.429 125.181 C 153.293 125.538,153.592 126.120,154.171 126.623 C 154.705 127.088,155.142 127.694,155.142 127.971 C 155.142 128.247,155.495 128.663,155.926 128.893 C 156.357 129.124,156.709 129.550,156.709 129.841 C 156.709 130.131,157.078 130.465,157.528 130.583 C 158.158 130.748,158.285 130.990,158.080 131.636 C 157.876 132.281,158.003 132.524,158.633 132.688 C 159.083 132.806,159.452 133.058,159.452 133.247 C 159.452 133.437,161.126 135.300,163.173 137.387 C 165.220 139.475,166.895 141.211,166.895 141.246 C 166.895 141.282,167.977 142.439,169.298 143.819 C 170.620 145.198,172.560 147.350,173.608 148.600 L 175.514 150.873 175.520 160.745 C 175.522 166.175,175.627 170.999,175.752 171.465 C 176.198 173.126,175.119 173.261,161.010 173.312 L 147.818 173.359 145.579 175.272 C 144.347 176.323,143.042 177.638,142.679 178.193 C 142.065 179.129,142.018 183.832,142.018 243.470 C 142.018 337.822,142.098 345.235,143.142 346.650 C 144.517 348.514,157.901 361.248,158.814 361.562 C 159.057 361.645,159.791 362.262,160.445 362.933 C 161.100 363.604,163.193 365.563,165.096 367.287 C 166.999 369.011,170.677 372.493,173.268 375.024 C 175.860 377.556,178.061 379.628,178.160 379.628 C 178.259 379.628,178.686 380.069,179.110 380.607 C 179.534 381.146,180.088 381.592,180.342 381.598 C 180.906 381.612,183.350 383.790,183.350 384.279 C 183.350 384.472,183.746 384.898,184.231 385.225 C 184.716 385.551,186.389 387.058,187.950 388.572 C 189.510 390.087,191.141 391.438,191.573 391.576 C 192.006 391.713,192.360 392.076,192.360 392.382 C 192.360 392.688,193.024 393.357,193.835 393.869 C 194.647 394.381,195.550 395.089,195.842 395.441 C 196.915 396.734,198.780 396.154,201.498 393.682 C 202.544 392.730,202.484 397.356,202.523 315.377 C 202.542 273.467,202.699 238.956,202.870 238.687 C 203.074 238.365,204.656 238.126,207.467 237.993 C 215.491 237.614,226.158 236.121,227.228 235.228 C 227.551 234.958,228.271 234.826,228.827 234.934 C 229.383 235.041,230.506 234.850,231.323 234.509 C 232.140 234.168,233.281 233.888,233.858 233.888 C 234.435 233.888,235.074 233.736,235.279 233.551 C 235.757 233.117,244.582 229.579,245.185 229.579 C 245.436 229.579,245.642 229.409,245.642 229.202 C 245.642 228.995,246.327 228.641,247.166 228.415 C 248.985 227.925,252.302 226.130,252.302 225.635 C 252.302 225.442,252.786 225.167,253.379 225.024 C 253.972 224.881,254.897 224.460,255.436 224.088 C 255.975 223.717,256.812 223.290,257.297 223.140 C 257.782 222.989,258.178 222.714,258.178 222.529 C 258.178 222.344,259.104 221.733,260.235 221.171 C 264.300 219.151,265.230 218.597,265.230 218.194 C 265.230 217.969,265.759 217.601,266.405 217.375 C 267.052 217.150,267.581 216.803,267.581 216.603 C 267.581 216.404,268.333 215.760,269.253 215.173 C 271.019 214.044,271.518 213.638,274.759 210.695 C 279.590 206.309,282.860 203.070,282.860 202.673 C 282.860 202.437,283.309 201.951,283.857 201.591 C 284.406 201.232,285.034 200.545,285.253 200.064 C 285.472 199.584,286.170 198.844,286.804 198.420 C 287.439 197.996,288.043 197.385,288.148 197.062 C 288.253 196.738,289.027 195.723,289.867 194.805 C 290.708 193.887,291.511 192.676,291.652 192.114 C 291.793 191.552,292.016 191.200,292.148 191.331 C 292.535 191.718,293.438 190.760,293.438 189.962 C 293.438 189.557,293.608 189.226,293.816 189.226 C 294.235 189.226,297.747 184.013,297.747 183.391 C 297.747 183.175,298.188 182.523,298.727 181.941 C 299.265 181.360,299.706 180.725,299.706 180.529 C 299.706 180.334,300.147 179.525,300.686 178.733 C 301.224 177.940,301.665 177.051,301.665 176.757 C 301.665 176.463,301.996 175.755,302.400 175.183 C 302.804 174.611,303.539 173.173,304.033 171.988 C 304.527 170.803,305.143 169.569,305.403 169.246 C 305.663 168.923,306.101 167.958,306.376 167.102 C 306.651 166.246,307.114 165.308,307.405 165.017 C 307.696 164.726,307.933 163.942,307.933 163.274 C 307.933 162.606,308.184 161.781,308.491 161.441 C 309.220 160.632,310.277 157.537,310.037 156.912 C 309.934 156.644,310.226 155.702,310.686 154.819 C 311.191 153.849,311.422 152.900,311.270 152.420 C 311.131 151.981,311.281 151.141,311.605 150.543 C 312.501 148.894,313.337 145.531,313.822 141.626 C 314.063 139.687,314.423 137.569,314.622 136.920 C 314.991 135.719,315.087 134.126,315.603 120.757 C 315.803 115.563,315.761 112.935,315.468 112.334 C 315.235 111.853,314.950 109.696,314.836 107.542 C 314.659 104.209,313.585 98.151,312.230 92.850 C 312.037 92.096,311.588 90.333,311.231 88.932 C 310.386 85.611,308.407 79.261,307.751 77.767 C 307.468 77.120,306.936 75.799,306.570 74.830 C 306.203 73.861,305.787 72.979,305.645 72.871 C 305.404 72.687,305.049 71.982,302.882 67.385 C 302.424 66.415,301.346 64.388,300.485 62.880 C 299.624 61.371,298.703 59.696,298.440 59.158 C 298.176 58.619,297.736 58.037,297.462 57.865 C 297.188 57.693,296.964 57.277,296.964 56.942 C 296.964 56.607,296.392 55.602,295.694 54.709 C 294.996 53.816,294.297 52.909,294.141 52.693 C 293.984 52.478,293.322 51.661,292.668 50.879 C 292.014 50.096,291.479 49.323,291.479 49.161 C 291.479 48.998,291.082 48.465,290.597 47.976 C 290.113 47.487,289.540 46.848,289.324 46.556 C 289.109 46.265,288.348 45.322,287.635 44.463 C 286.921 43.603,285.951 42.419,285.480 41.832 C 285.009 41.245,283.786 39.882,282.762 38.804 C 281.738 37.726,280.901 36.663,280.901 36.443 C 280.901 36.223,280.660 36.043,280.365 36.043 C 280.070 36.043,278.862 35.118,277.680 33.986 C 276.499 32.855,274.228 30.824,272.634 29.473 C 271.040 28.122,269.471 26.787,269.148 26.506 C 268.825 26.226,267.912 25.606,267.119 25.128 C 266.326 24.651,265.621 24.124,265.552 23.958 C 265.483 23.792,264.412 22.989,263.173 22.172 C 261.934 21.356,260.921 20.529,260.921 20.334 C 260.921 20.140,260.714 19.980,260.462 19.980 C 260.209 19.980,259.725 19.730,259.384 19.424 C 259.044 19.118,257.840 18.403,256.709 17.836 C 255.578 17.269,254.652 16.638,254.652 16.434 C 254.652 16.230,254.212 16.063,253.673 16.063 C 253.134 16.063,252.693 15.900,252.693 15.701 C 252.693 15.503,252.076 15.136,251.322 14.887 C 250.568 14.638,249.951 14.272,249.951 14.073 C 249.951 13.875,249.708 13.712,249.411 13.712 C 249.115 13.712,248.652 13.448,248.384 13.124 C 248.116 12.801,247.608 12.537,247.256 12.537 C 246.568 12.537,242.009 10.783,236.631 8.450 C 231.421 6.189,231.631 6.257,225.465 4.865 C 223.957 4.525,221.753 3.985,220.568 3.666 C 219.383 3.346,217.444 3.016,216.259 2.932 C 215.073 2.847,213.333 2.662,212.391 2.519 C 210.494 2.231,207.248 3.488,207.248 4.510 C 207.248 4.806,206.873 5.684,206.414 6.462 C 205.240 8.451,205.478 27.782,206.877 44.095 C 207.081 46.477,207.252 50.972,207.257 54.085 C 207.262 57.198,207.509 63.407,207.807 67.882 C 208.706 81.401,208.047 83.455,202.624 84.054 C 194.176 84.987,193.143 82.582,193.021 61.704 C 193.013 60.411,192.844 54.241,192.645 47.992 C 192.445 41.743,192.231 33.810,192.168 30.362 C 191.939 17.766,191.226 8.619,190.321 6.671 C 189.867 5.695,189.527 4.700,189.563 4.458 C 189.603 4.189,189.157 4.074,188.407 4.161 C 187.479 4.270,187.237 4.171,187.399 3.749 C 187.890 2.469,182.918 2.234,181.673 3.479 C 181.431 3.720,180.949 3.918,180.601 3.918 C 179.041 3.918,178.326 8.719,178.062 20.960 C 177.236 59.315,176.578 78.786,176.054 80.412 C 175.406 82.420,172.241 84.231,169.381 84.231 C 166.457 84.231,163.761 83.292,163.761 82.273 C 163.761 81.853,163.492 81.597,163.084 81.630 C 161.948 81.722,161.848 79.160,162.260 60.529 C 162.781 37.023,162.895 33.938,163.349 30.950 C 163.562 29.549,163.786 23.457,163.847 17.411 L 163.957 6.418 162.094 4.580 C 160.491 3.000,160.008 2.742,158.643 2.742 C 157.684 2.742,157.151 2.587,157.297 2.351 C 157.430 2.135,157.264 1.959,156.928 1.959 C 156.592 1.959,156.317 2.135,156.317 2.351 M228.562 71.499 C 229.144 72.037,229.871 72.478,230.178 72.478 C 230.485 72.478,231.020 72.912,231.368 73.442 C 231.715 73.972,232.380 74.523,232.846 74.666 C 233.312 74.809,234.245 75.521,234.921 76.248 C 235.596 76.976,236.240 77.571,236.351 77.571 C 236.462 77.571,237.147 78.144,237.873 78.844 C 240.653 81.524,242.382 82.953,243.501 83.498 C 244.671 84.066,244.831 84.669,244.276 86.419 C 244.063 87.092,244.235 87.299,245.258 87.594 C 246.214 87.870,246.618 88.297,247.013 89.448 C 247.295 90.270,247.807 91.254,248.151 91.634 C 248.495 92.013,248.776 92.619,248.776 92.979 C 248.776 93.339,249.051 93.634,249.386 93.634 C 249.729 93.634,249.881 93.822,249.732 94.063 C 249.586 94.299,249.813 94.960,250.235 95.532 C 250.658 96.104,251.135 97.277,251.296 98.139 C 251.457 99.001,251.727 99.882,251.896 100.098 C 252.065 100.313,252.306 101.019,252.431 101.665 C 253.049 104.856,253.465 106.590,254.197 109.025 C 255.161 112.230,255.401 120.786,254.684 126.347 C 254.433 128.286,254.134 130.842,254.018 132.027 C 253.823 134.033,253.510 135.126,252.648 136.821 C 252.457 137.195,252.301 137.813,252.300 138.193 C 252.297 139.117,250.610 143.217,249.879 144.076 C 249.559 144.452,249.063 145.377,248.778 146.131 C 248.492 146.885,247.846 147.953,247.342 148.503 C 246.838 149.054,246.425 149.645,246.425 149.818 C 246.425 149.991,245.858 150.848,245.165 151.723 C 244.472 152.598,243.873 153.533,243.834 153.802 C 243.766 154.260,240.833 157.595,238.538 159.822 C 236.416 161.882,230.986 165.720,230.195 165.720 C 229.906 165.720,229.569 166.109,229.444 166.584 C 229.320 167.060,229.110 167.340,228.977 167.207 C 228.735 166.966,225.248 168.346,224.878 168.829 C 224.506 169.315,218.017 171.545,216.283 171.783 C 215.327 171.914,214.005 172.265,213.345 172.563 C 211.660 173.323,195.284 173.658,194.692 172.944 C 194.425 172.622,194.324 168.680,194.400 161.512 L 194.515 150.571 197.160 147.862 C 198.614 146.371,199.804 144.932,199.804 144.662 C 199.804 144.393,199.959 144.172,200.148 144.172 C 200.338 144.172,200.707 143.655,200.969 143.023 C 201.238 142.373,201.658 141.957,201.938 142.064 C 202.209 142.168,202.697 141.847,203.023 141.352 C 203.349 140.856,205.490 138.547,207.782 136.220 C 210.074 133.893,211.949 131.822,211.949 131.617 C 211.949 131.412,212.081 131.243,212.243 131.241 C 212.405 131.240,212.954 130.626,213.463 129.878 C 214.278 128.681,214.802 128.000,216.203 126.317 C 216.396 126.085,216.689 125.468,216.853 124.945 C 217.017 124.423,217.751 123.055,218.484 121.906 C 219.218 120.756,220.093 119.126,220.430 118.284 C 220.767 117.442,221.195 116.848,221.382 116.963 C 221.568 117.078,221.841 116.680,221.988 116.079 C 222.134 115.477,222.580 114.565,222.978 114.051 C 223.377 113.537,223.702 112.691,223.702 112.171 C 223.702 111.650,223.950 110.746,224.252 110.161 C 224.554 109.577,224.922 108.219,225.069 107.145 C 225.217 106.070,225.685 103.908,226.110 102.339 C 227.275 98.044,226.700 79.551,225.233 74.159 C 224.303 70.737,226.149 69.262,228.562 71.499 " stroke="none" fill="#f48d25" fill-rule="evenodd"></path><path id="path1" d="M153.808 1.431 C 151.025 2.239,149.699 5.355,149.039 12.632 C 148.741 15.919,148.317 20.233,148.098 22.218 C 147.878 24.202,147.723 26.670,147.753 27.702 C 147.792 29.043,147.897 28.628,148.120 26.249 C 149.926 7.005,149.944 6.878,151.129 4.861 C 153.492 0.838,159.813 0.451,163.046 4.131 L 164.349 5.613 164.557 13.678 L 164.765 21.743 164.850 13.656 L 164.936 5.568 163.075 3.555 L 161.214 1.542 157.884 1.378 C 156.053 1.288,154.219 1.312,153.808 1.431 M182.405 1.454 C 180.251 1.789,177.806 4.618,177.887 6.686 C 177.899 6.995,178.212 6.500,178.584 5.585 C 181.335 -1.188,190.576 1.246,191.586 9.011 C 191.865 11.162,191.866 11.162,191.887 9.403 C 191.955 3.853,188.050 0.579,182.405 1.454 M210.473 1.397 C 210.580 1.504,212.643 1.851,215.056 2.168 C 217.470 2.485,220.679 3.026,222.189 3.369 C 223.698 3.712,225.038 3.888,225.166 3.760 C 225.295 3.631,225.028 3.526,224.574 3.526 C 224.120 3.526,223.640 3.350,223.506 3.134 C 223.373 2.919,222.728 2.742,222.073 2.742 C 221.418 2.742,220.327 2.494,219.648 2.191 C 218.515 1.686,210.027 0.951,210.473 1.397 M206.750 3.356 C 204.564 6.447,203.988 10.782,204.856 17.630 C 205.034 19.033,205.123 17.598,205.111 13.516 C 205.091 6.378,205.745 4.164,208.325 2.636 C 209.806 1.758,209.892 1.567,208.807 1.567 C 208.313 1.567,207.540 2.240,206.750 3.356 M228.012 4.750 C 242.044 8.929,257.308 16.516,267.182 24.217 C 268.579 25.306,269.798 26.121,269.892 26.027 C 269.985 25.934,269.989 25.804,269.899 25.740 C 269.809 25.676,268.830 24.883,267.722 23.977 C 266.615 23.072,265.594 22.331,265.453 22.331 C 265.150 22.331,264.254 21.621,263.353 20.666 C 262.997 20.289,262.561 19.980,262.385 19.980 C 262.047 19.980,259.941 18.561,259.042 17.728 C 258.752 17.458,258.289 17.238,258.014 17.238 C 257.739 17.238,257.108 16.885,256.611 16.454 C 256.114 16.024,255.555 15.671,255.368 15.671 C 255.181 15.671,254.360 15.249,253.543 14.733 C 252.726 14.218,250.129 12.972,247.772 11.966 C 242.591 9.753,242.665 9.786,238.899 8.064 C 237.238 7.304,235.387 6.565,234.786 6.422 C 234.184 6.278,233.516 6.029,233.301 5.868 C 233.085 5.707,232.324 5.450,231.609 5.297 C 230.894 5.144,229.837 4.772,229.259 4.471 C 228.681 4.169,227.591 3.938,226.836 3.957 C 225.633 3.987,225.778 4.084,228.012 4.750 M177.602 9.990 C 177.603 11.499,177.674 12.068,177.759 11.255 C 177.844 10.442,177.842 9.208,177.756 8.512 C 177.669 7.817,177.600 8.482,177.602 9.990 M192.103 14.300 C 192.104 16.024,192.173 16.680,192.256 15.758 C 192.339 14.837,192.338 13.427,192.253 12.624 C 192.169 11.822,192.102 12.576,192.103 14.300 M192.516 23.506 C 192.516 26.631,192.577 27.909,192.651 26.347 C 192.726 24.785,192.726 22.228,192.651 20.666 C 192.577 19.104,192.516 20.382,192.516 23.506 M177.242 28.795 C 177.241 32.458,177.300 34.010,177.372 32.243 C 177.445 30.475,177.445 27.478,177.373 25.582 C 177.301 23.686,177.242 25.132,177.242 28.795 M205.435 28.012 C 205.436 30.382,205.501 31.301,205.579 30.054 C 205.657 28.807,205.656 26.868,205.577 25.745 C 205.498 24.621,205.435 25.642,205.435 28.012 M164.244 27.424 C 164.244 28.178,164.324 28.487,164.423 28.110 C 164.521 27.733,164.521 27.116,164.423 26.738 C 164.324 26.361,164.244 26.670,164.244 27.424 M270.323 26.382 C 270.323 26.470,271.866 27.880,273.751 29.515 C 293.693 46.812,307.165 68.204,312.404 90.891 C 312.777 92.507,313.329 94.711,313.629 95.788 C 313.930 96.866,314.366 98.981,314.598 100.490 C 315.651 107.339,315.756 107.803,315.528 104.603 C 315.001 97.212,311.226 83.021,307.503 74.437 C 305.946 70.846,300.348 59.921,298.583 57.029 C 293.585 48.840,283.463 37.053,276.019 30.754 C 274.745 29.677,273.251 28.381,272.699 27.876 C 271.679 26.942,270.323 26.089,270.323 26.382 M147.419 32.321 C 147.422 33.399,147.498 33.793,147.588 33.197 C 147.678 32.602,147.675 31.720,147.582 31.238 C 147.489 30.757,147.416 31.244,147.419 32.321 M163.895 34.280 C 163.897 36.004,163.966 36.660,164.048 35.739 C 164.131 34.817,164.130 33.407,164.046 32.605 C 163.962 31.802,163.894 32.556,163.895 34.280 M205.806 36.435 C 205.806 37.835,205.877 38.408,205.964 37.708 C 206.051 37.008,206.051 35.862,205.964 35.162 C 205.877 34.461,205.806 35.034,205.806 36.435 M147.027 36.631 C 147.030 37.708,147.106 38.102,147.196 37.507 C 147.286 36.911,147.284 36.030,147.191 35.548 C 147.098 35.066,147.024 35.553,147.027 36.631 M192.893 38.394 C 192.893 40.441,192.959 41.278,193.040 40.255 C 193.121 39.231,193.121 37.556,193.040 36.533 C 192.959 35.509,192.893 36.347,192.893 38.394 M176.844 42.507 C 176.845 45.524,176.906 46.706,176.981 45.135 C 177.055 43.563,177.055 41.095,176.980 39.650 C 176.904 38.205,176.843 39.491,176.844 42.507 M146.393 41.683 C 146.249 42.735,146.155 44.585,146.185 45.794 C 146.228 47.550,146.306 47.244,146.573 44.270 C 146.934 40.243,146.819 38.580,146.393 41.683 M206.216 47.600 C 206.217 49.755,206.282 50.587,206.362 49.448 C 206.441 48.310,206.440 46.547,206.360 45.530 C 206.280 44.514,206.215 45.446,206.216 47.600 M193.292 50.930 C 193.292 53.408,193.356 54.422,193.433 53.183 C 193.511 51.944,193.511 49.917,193.433 48.678 C 193.356 47.439,193.292 48.452,193.292 50.930 M163.099 50.343 C 163.101 51.636,163.174 52.117,163.261 51.413 C 163.349 50.709,163.347 49.651,163.257 49.063 C 163.168 48.474,163.097 49.050,163.099 50.343 M145.838 49.951 C 145.843 50.813,145.923 51.119,146.017 50.632 C 146.110 50.145,146.107 49.440,146.009 49.065 C 145.911 48.690,145.834 49.089,145.838 49.951 M145.454 53.673 C 145.454 54.643,145.531 55.039,145.624 54.554 C 145.718 54.070,145.718 53.276,145.624 52.791 C 145.531 52.307,145.454 52.703,145.454 53.673 M176.419 57.395 C 176.421 58.688,176.494 59.169,176.582 58.465 C 176.669 57.761,176.667 56.703,176.578 56.114 C 176.488 55.526,176.417 56.102,176.419 57.395 M206.590 57.982 C 206.590 59.383,206.661 59.956,206.748 59.256 C 206.835 58.555,206.835 57.409,206.748 56.709 C 206.661 56.009,206.590 56.582,206.590 57.982 M144.686 60.921 C 144.688 62.214,144.761 62.695,144.848 61.991 C 144.935 61.287,144.933 60.229,144.844 59.640 C 144.755 59.052,144.683 59.628,144.686 60.921 M162.698 62.488 C 162.701 63.565,162.777 63.959,162.867 63.364 C 162.957 62.768,162.954 61.887,162.861 61.405 C 162.768 60.923,162.695 61.410,162.698 62.488 M176.056 65.622 C 176.056 68.208,176.120 69.214,176.196 67.859 C 176.273 66.504,176.273 64.389,176.195 63.158 C 176.118 61.927,176.055 63.036,176.056 65.622 M144.284 65.230 C 144.287 66.308,144.363 66.702,144.454 66.106 C 144.544 65.511,144.541 64.629,144.448 64.147 C 144.355 63.666,144.281 64.153,144.284 65.230 M206.981 65.818 C 206.981 67.218,207.053 67.791,207.139 67.091 C 207.226 66.391,207.226 65.245,207.139 64.545 C 207.053 63.844,206.981 64.417,206.981 65.818 M193.642 66.993 C 193.642 67.963,193.719 68.359,193.812 67.875 C 193.906 67.390,193.906 66.596,193.812 66.112 C 193.719 65.627,193.642 66.024,193.642 66.993 M143.893 69.148 C 143.896 70.225,143.972 70.620,144.062 70.024 C 144.152 69.428,144.149 68.547,144.056 68.065 C 143.963 67.583,143.890 68.071,143.893 69.148 M225.689 71.750 C 225.712 72.530,225.760 72.563,225.996 71.964 C 226.259 71.298,226.349 71.309,227.438 72.153 C 229.142 73.474,229.294 73.594,230.324 74.444 C 230.842 74.871,231.371 75.224,231.500 75.229 C 231.628 75.234,232.371 75.813,233.150 76.515 C 233.929 77.218,235.598 78.668,236.857 79.738 C 240.177 82.559,241.328 83.838,242.137 85.602 C 242.868 87.197,246.748 91.289,246.286 89.978 C 246.147 89.583,246.033 89.191,246.033 89.106 C 246.033 89.022,245.507 88.680,244.863 88.347 C 244.103 87.954,243.305 86.956,242.587 85.497 C 240.524 81.308,225.612 69.177,225.689 71.750 M143.488 72.674 C 143.492 73.536,143.572 73.842,143.666 73.355 C 143.760 72.868,143.756 72.162,143.658 71.788 C 143.560 71.413,143.483 71.812,143.488 72.674 M207.385 74.829 C 207.385 76.660,207.452 77.409,207.535 76.494 C 207.617 75.578,207.617 74.079,207.535 73.164 C 207.452 72.248,207.385 72.997,207.385 74.829 M162.331 75.612 C 162.331 77.444,162.398 78.193,162.481 77.277 C 162.563 76.361,162.563 74.863,162.481 73.947 C 162.398 73.031,162.331 73.781,162.331 75.612 M142.793 79.718 C 142.637 82.219,142.595 84.351,142.699 84.456 C 142.804 84.560,143.015 82.597,143.169 80.094 C 143.324 77.591,143.366 75.459,143.264 75.356 C 143.161 75.254,142.950 77.217,142.793 79.718 M226.551 79.530 C 226.551 80.500,226.628 80.896,226.721 80.411 C 226.815 79.927,226.815 79.133,226.721 78.648 C 226.628 78.164,226.551 78.560,226.551 79.530 M194.711 79.815 C 194.711 81.155,198.084 83.611,199.537 83.329 C 200.204 83.199,200.144 83.151,199.263 83.109 C 198.495 83.073,197.586 82.508,196.422 81.344 C 195.481 80.403,194.711 79.715,194.711 79.815 M206.856 80.024 C 206.856 80.367,206.283 81.115,205.583 81.685 L 204.310 82.722 205.555 82.110 C 206.732 81.531,207.594 80.137,207.088 79.631 C 206.960 79.504,206.856 79.680,206.856 80.024 M163.734 81.190 C 164.474 81.994,165.164 82.567,165.269 82.462 C 165.373 82.358,165.384 82.228,165.294 82.174 C 165.203 82.120,164.512 81.548,163.759 80.902 L 162.390 79.727 163.734 81.190 M173.237 82.076 C 172.768 82.615,172.002 83.056,171.534 83.056 C 171.065 83.056,170.792 83.165,170.925 83.299 C 171.405 83.778,173.080 83.046,173.712 82.081 C 174.536 80.824,174.327 80.822,173.237 82.076 M226.927 83.839 C 226.927 84.594,227.008 84.902,227.106 84.525 C 227.205 84.148,227.205 83.531,227.106 83.154 C 227.008 82.777,226.927 83.085,226.927 83.839 M167.875 83.448 C 169.532 83.869,170.954 83.869,169.638 83.448 C 169.099 83.275,168.217 83.137,167.679 83.141 C 166.799 83.148,166.819 83.179,167.875 83.448 M227.350 87.561 C 227.352 88.854,227.425 89.336,227.512 88.632 C 227.599 87.927,227.598 86.870,227.508 86.281 C 227.419 85.692,227.347 86.268,227.350 87.561 M142.057 90.402 C 141.924 92.933,141.949 95.975,142.112 97.160 C 142.328 98.721,142.424 97.453,142.464 92.556 C 142.527 84.660,142.397 83.969,142.057 90.402 M246.817 91.588 C 246.817 91.755,247.108 92.307,247.463 92.814 C 247.818 93.322,248.607 94.903,249.215 96.330 C 249.824 97.756,250.326 98.649,250.332 98.314 C 250.338 97.980,249.644 96.261,248.790 94.494 C 247.378 91.575,246.817 90.748,246.817 91.588 M227.327 98.923 C 227.331 99.785,227.412 100.091,227.505 99.604 C 227.599 99.116,227.595 98.411,227.497 98.037 C 227.399 97.662,227.323 98.061,227.327 98.923 M250.580 99.902 C 250.727 100.441,251.085 101.499,251.377 102.253 L 251.908 103.624 251.667 102.253 C 251.534 101.499,251.175 100.441,250.870 99.902 L 250.314 98.923 250.580 99.902 M143.049 102.644 C 143.039 102.968,143.272 104.202,143.568 105.387 C 143.864 106.572,144.117 107.189,144.132 106.758 C 144.146 106.327,143.912 105.093,143.612 104.016 C 143.312 102.938,143.059 102.321,143.049 102.644 M315.965 121.261 C 315.965 128.798,316.074 133.643,316.207 132.027 C 316.540 128.005,316.556 111.474,316.230 109.312 C 316.084 108.346,315.965 113.723,315.965 121.261 M224.933 109.833 C 224.693 110.787,223.893 112.998,223.156 114.746 C 222.419 116.494,221.895 117.924,221.992 117.924 C 222.585 117.924,225.985 108.714,225.552 108.281 C 225.452 108.181,225.173 108.880,224.933 109.833 M145.196 111.655 C 145.569 113.125,149.587 121.818,150.461 123.046 C 150.881 123.635,151.224 124.228,151.224 124.363 C 151.224 125.832,163.384 140.371,164.053 139.702 C 164.142 139.613,162.943 138.246,161.389 136.665 C 155.654 130.829,151.813 125.275,148.292 117.728 C 145.239 111.184,144.917 110.552,145.196 111.655 M254.389 119.295 C 254.391 120.803,254.462 121.372,254.546 120.559 C 254.631 119.746,254.630 118.512,254.543 117.817 C 254.457 117.121,254.387 117.786,254.389 119.295 M219.967 121.156 L 219.346 122.429 220.144 121.450 C 220.913 120.507,221.164 119.882,220.774 119.882 C 220.672 119.882,220.309 120.455,219.967 121.156 M253.686 125.576 C 253.533 127.004,253.496 128.259,253.604 128.367 C 253.712 128.475,253.925 127.395,254.078 125.968 C 254.231 124.541,254.267 123.285,254.160 123.177 C 254.052 123.069,253.839 124.149,253.686 125.576 M251.946 135.495 C 250.755 139.276,246.264 148.739,245.224 149.657 C 245.102 149.765,244.444 150.674,243.761 151.678 C 243.078 152.681,241.966 154.056,241.290 154.732 C 240.614 155.408,240.140 156.039,240.235 156.135 C 241.817 157.716,254.007 135.513,253.020 132.850 C 252.948 132.656,252.465 133.847,251.946 135.495 M315.194 137.806 C 314.193 146.056,310.108 160.551,306.664 168.071 C 306.023 169.471,305.165 171.459,304.758 172.488 C 302.884 177.231,294.690 190.440,290.791 195.004 C 289.815 196.146,289.091 197.155,289.182 197.246 C 289.512 197.576,295.787 189.223,298.592 184.721 C 300.192 182.153,304.799 174.011,304.799 173.752 C 304.799 173.663,305.615 171.687,306.612 169.361 C 311.040 159.034,314.858 145.825,315.604 138.257 C 315.925 134.998,315.581 134.619,315.194 137.806 M206.856 138.100 C 205.904 139.070,205.214 139.863,205.322 139.863 C 205.429 139.863,206.296 139.070,207.248 138.100 C 208.199 137.130,208.890 136.337,208.782 136.337 C 208.674 136.337,207.808 137.130,206.856 138.100 M164.552 140.149 C 164.556 140.315,165.394 141.346,166.413 142.440 C 173.525 150.074,173.949 150.687,174.320 153.868 C 174.628 156.512,174.628 156.512,174.679 154.482 C 174.748 151.776,174.342 150.851,171.735 147.765 C 168.782 144.269,164.543 139.775,164.552 140.149 M196.986 148.776 C 196.296 149.579,195.778 150.441,195.985 150.441 C 196.065 150.441,196.522 149.912,197.000 149.265 C 197.944 147.988,197.935 147.671,196.986 148.776 M238.663 157.786 C 238.208 158.379,236.775 159.657,235.479 160.627 C 234.182 161.596,233.118 162.540,233.113 162.724 C 233.109 162.908,233.705 162.556,234.438 161.941 C 235.171 161.326,236.491 160.241,237.372 159.530 C 238.253 158.819,239.158 157.894,239.383 157.473 C 239.968 156.382,239.628 156.530,238.663 157.786 M231.636 163.456 C 231.151 163.689,230.754 164.011,230.754 164.170 C 230.754 164.329,230.313 164.570,229.775 164.705 C 229.236 164.841,228.795 165.135,228.795 165.361 C 228.795 165.813,231.729 164.279,232.392 163.480 C 232.880 162.891,232.810 162.889,231.636 163.456 M227.032 166.334 C 225.810 166.969,224.929 167.679,225.364 167.679 C 225.701 167.679,228.404 166.077,228.404 165.877 C 228.404 165.641,228.307 165.673,227.032 166.334 M221.478 168.982 C 220.793 169.235,220.102 169.574,219.943 169.736 C 219.387 170.300,220.776 169.990,222.135 169.246 C 223.668 168.406,223.365 168.285,221.478 168.982 M216.846 170.309 C 216.415 170.412,215.886 170.680,215.671 170.904 C 215.402 171.184,215.585 171.224,216.259 171.032 C 216.797 170.879,217.767 170.609,218.413 170.432 C 219.775 170.059,218.351 169.947,216.846 170.309 M212.537 171.489 C 211.890 171.581,211.219 171.795,211.044 171.964 C 210.869 172.132,211.641 172.126,212.759 171.949 C 213.876 171.773,214.886 171.533,215.002 171.416 C 215.226 171.192,214.466 171.215,212.537 171.489 M160.609 172.368 C 145.316 172.596,146.103 172.469,143.416 175.156 C 142.717 175.854,141.940 176.882,141.690 177.439 C 141.161 178.616,140.800 343.145,141.322 345.158 C 141.489 345.802,141.626 308.909,141.626 263.174 C 141.626 174.315,141.546 177.775,143.652 175.669 C 146.666 172.654,145.949 172.775,160.898 172.773 C 169.403 172.772,174.381 172.629,174.535 172.380 C 174.668 172.165,174.722 172.027,174.656 172.074 C 174.589 172.121,168.268 172.254,160.609 172.368 M195.445 172.488 C 195.613 172.656,198.558 172.743,201.989 172.683 L 208.227 172.574 201.684 172.379 C 198.085 172.272,195.277 172.321,195.445 172.488 M287.159 199.314 C 267.901 221.642,240.770 235.824,212.537 238.319 C 211.656 238.397,212.170 238.481,213.712 238.511 C 218.546 238.604,228.555 236.947,232.125 235.461 C 233.492 234.893,236.767 233.853,238.492 233.440 C 239.407 233.221,240.157 232.879,240.157 232.681 C 240.157 232.483,240.529 232.321,240.985 232.321 C 241.440 232.321,242.454 231.997,243.238 231.601 C 244.021 231.205,245.279 230.599,246.033 230.255 C 249.607 228.625,251.907 227.470,254.065 226.223 C 255.357 225.476,257.032 224.559,257.786 224.185 C 258.541 223.812,259.391 223.286,259.675 223.017 C 259.960 222.747,260.354 222.527,260.552 222.527 C 260.749 222.527,262.367 221.520,264.148 220.290 C 267.866 217.719,267.673 217.866,269.736 216.072 C 270.597 215.323,271.408 214.706,271.537 214.701 C 271.665 214.696,272.194 214.331,272.712 213.891 C 273.230 213.451,274.623 212.266,275.808 211.258 C 279.951 207.734,289.392 197.845,288.614 197.845 C 288.511 197.845,287.856 198.506,287.159 199.314 M203.073 239.194 C 202.946 239.527,202.951 239.909,203.086 240.043 C 203.220 240.177,203.330 240.000,203.330 239.649 C 203.330 239.110,203.932 238.990,207.150 238.882 L 210.970 238.754 207.138 238.672 C 203.994 238.604,203.264 238.698,203.073 239.194 M203.130 316.944 C 203.130 358.854,203.176 375.999,203.232 355.044 C 203.288 334.089,203.288 299.799,203.232 278.844 C 203.176 257.889,203.130 275.034,203.130 316.944 M141.822 346.972 C 141.822 347.480,147.409 353.201,150.757 356.121 C 152.115 357.307,154.240 359.246,155.478 360.431 C 158.073 362.915,164.969 369.283,166.699 370.794 C 168.558 372.417,171.175 374.830,174.143 377.658 C 175.651 379.095,178.789 381.995,181.117 384.104 C 183.444 386.212,187.210 389.759,189.486 391.986 C 193.520 395.933,195.450 397.292,196.925 397.224 C 197.323 397.205,196.680 396.716,195.495 396.136 C 194.198 395.501,192.078 393.837,190.173 391.958 C 186.228 388.067,181.334 383.440,179.030 381.424 C 178.066 380.581,175.503 378.201,173.334 376.135 C 171.165 374.070,167.905 371.058,166.088 369.442 C 164.272 367.826,160.510 364.388,157.728 361.802 C 154.946 359.216,151.683 356.232,150.478 355.170 C 149.272 354.108,146.832 351.737,145.054 349.900 C 143.276 348.064,141.822 346.746,141.822 346.972 M202.547 394.001 C 202.547 394.221,201.533 395.058,200.294 395.862 C 199.055 396.666,198.449 397.205,198.947 397.060 C 201.001 396.464,203.377 394.432,202.752 393.806 C 202.639 393.693,202.547 393.781,202.547 394.001 " stroke="none" fill="#f48d25" fill-rule="evenodd"></path><path id="path2" d="M205.004 11.753 C 205.004 12.723,205.080 13.119,205.174 12.635 C 205.267 12.150,205.267 11.357,205.174 10.872 C 205.080 10.387,205.004 10.784,205.004 11.753 M177.610 19.980 C 177.610 21.812,177.677 22.561,177.760 21.645 C 177.842 20.730,177.842 19.231,177.760 18.315 C 177.677 17.400,177.610 18.149,177.610 19.980 M205.410 20.568 C 205.413 21.861,205.486 22.343,205.573 21.638 C 205.660 20.934,205.658 19.876,205.569 19.288 C 205.479 18.699,205.408 19.275,205.410 20.568 M192.075 20.764 C 192.075 21.734,192.152 22.130,192.245 21.645 C 192.339 21.161,192.339 20.367,192.245 19.882 C 192.152 19.398,192.075 19.794,192.075 20.764 M164.259 21.548 C 164.259 22.517,164.336 22.914,164.429 22.429 C 164.523 21.944,164.523 21.151,164.429 20.666 C 164.336 20.181,164.259 20.578,164.259 21.548 M205.772 30.558 C 205.772 31.312,205.852 31.621,205.951 31.244 C 206.049 30.867,206.049 30.250,205.951 29.873 C 205.852 29.496,205.772 29.804,205.772 30.558 M192.472 33.105 C 192.475 34.182,192.552 34.576,192.642 33.981 C 192.732 33.385,192.729 32.504,192.636 32.022 C 192.543 31.540,192.470 32.027,192.472 33.105 M177.188 37.610 C 177.188 38.580,177.264 38.976,177.358 38.492 C 177.451 38.007,177.451 37.214,177.358 36.729 C 177.264 36.244,177.188 36.641,177.188 37.610 M206.198 40.353 C 206.198 41.753,206.269 42.326,206.356 41.626 C 206.443 40.926,206.443 39.780,206.356 39.079 C 206.269 38.379,206.198 38.952,206.198 40.353 M192.878 45.054 C 192.878 46.454,192.949 47.027,193.036 46.327 C 193.123 45.627,193.123 44.481,193.036 43.781 C 192.949 43.080,192.878 43.653,192.878 45.054 M206.586 49.951 C 206.588 51.244,206.661 51.726,206.748 51.021 C 206.835 50.317,206.834 49.259,206.744 48.671 C 206.655 48.082,206.583 48.658,206.586 49.951 M176.780 51.714 C 176.780 52.468,176.861 52.777,176.960 52.400 C 177.058 52.023,177.058 51.405,176.960 51.028 C 176.861 50.651,176.780 50.960,176.780 51.714 M206.977 59.745 C 206.980 61.038,207.053 61.520,207.140 60.816 C 207.227 60.112,207.225 59.054,207.136 58.465 C 207.047 57.876,206.975 58.452,206.977 59.745 M193.251 61.117 C 193.251 62.086,193.327 62.483,193.420 61.998 C 193.514 61.513,193.514 60.720,193.420 60.235 C 193.327 59.750,193.251 60.147,193.251 61.117 M176.389 61.900 C 176.389 62.654,176.469 62.963,176.568 62.586 C 176.666 62.209,176.666 61.592,176.568 61.214 C 176.469 60.837,176.389 61.146,176.389 61.900 M162.301 67.777 C 162.301 68.746,162.377 69.143,162.470 68.658 C 162.564 68.173,162.564 67.380,162.470 66.895 C 162.377 66.410,162.301 66.807,162.301 67.777 M207.355 68.168 C 207.355 69.138,207.431 69.535,207.524 69.050 C 207.618 68.565,207.618 67.772,207.524 67.287 C 207.431 66.802,207.355 67.199,207.355 68.168 M176.013 73.262 C 176.013 74.231,176.089 74.628,176.182 74.143 C 176.276 73.658,176.276 72.865,176.182 72.380 C 176.089 71.895,176.013 72.292,176.013 73.262 M228.012 71.837 C 228.012 71.945,228.541 72.409,229.187 72.870 C 229.833 73.330,230.362 73.618,230.362 73.511 C 230.362 73.403,229.833 72.938,229.187 72.478 C 228.541 72.018,228.012 71.729,228.012 71.837 M207.752 75.024 C 207.755 76.102,207.831 76.496,207.921 75.901 C 208.011 75.305,208.008 74.424,207.915 73.942 C 207.822 73.460,207.749 73.947,207.752 75.024 M193.642 75.220 C 193.642 76.190,193.719 76.587,193.812 76.102 C 193.906 75.617,193.906 74.824,193.812 74.339 C 193.719 73.854,193.642 74.251,193.642 75.220 M207.347 79.334 C 207.351 80.196,207.431 80.502,207.525 80.015 C 207.619 79.528,207.615 78.822,207.517 78.448 C 207.419 78.073,207.342 78.472,207.347 79.334 M143.088 81.489 C 143.088 82.243,143.169 82.551,143.267 82.174 C 143.366 81.797,143.366 81.180,143.267 80.803 C 143.169 80.426,143.088 80.735,143.088 81.489 M241.990 84.124 C 242.382 84.820,242.768 85.198,242.847 84.965 C 242.927 84.732,242.606 84.163,242.135 83.701 L 241.278 82.860 241.990 84.124 M243.364 84.256 C 243.459 84.538,243.767 84.847,244.050 84.941 C 244.344 85.039,244.491 84.892,244.393 84.598 C 244.298 84.316,243.990 84.007,243.707 83.913 C 243.413 83.815,243.266 83.962,243.364 84.256 M142.704 86.386 C 142.708 87.248,142.789 87.554,142.882 87.067 C 142.976 86.580,142.973 85.874,142.874 85.500 C 142.776 85.125,142.700 85.524,142.704 86.386 M142.331 93.242 C 142.331 94.427,142.404 94.912,142.494 94.319 C 142.584 93.727,142.584 92.757,142.494 92.165 C 142.404 91.572,142.331 92.057,142.331 93.242 M227.360 94.025 C 227.360 95.642,227.429 96.303,227.514 95.495 C 227.598 94.687,227.598 93.364,227.514 92.556 C 227.429 91.748,227.360 92.409,227.360 94.025 M315.908 114.985 C 315.907 116.925,315.973 117.767,316.055 116.858 C 316.137 115.949,316.138 114.362,316.057 113.332 C 315.976 112.302,315.909 113.046,315.908 114.985 M149.853 121.058 C 150.187 121.704,150.549 122.233,150.657 122.233 C 150.764 122.233,150.579 121.704,150.245 121.058 C 149.911 120.411,149.549 119.882,149.441 119.882 C 149.333 119.882,149.519 120.411,149.853 121.058 M315.901 124.976 C 315.901 126.592,315.970 127.253,316.054 126.445 C 316.139 125.637,316.139 124.314,316.054 123.506 C 315.970 122.698,315.901 123.359,315.901 124.976 M253.568 130.852 C 253.568 131.606,253.649 131.915,253.747 131.538 C 253.846 131.161,253.846 130.544,253.747 130.167 C 253.649 129.789,253.568 130.098,253.568 130.852 M205.862 138.786 L 203.918 140.842 205.975 138.898 C 207.886 137.092,208.211 136.729,207.919 136.729 C 207.857 136.729,206.931 137.654,205.862 138.786 M197.845 147.502 C 196.894 148.472,196.203 149.265,196.311 149.265 C 196.419 149.265,197.285 148.472,198.237 147.502 C 199.189 146.533,199.879 145.739,199.771 145.739 C 199.664 145.739,198.797 146.533,197.845 147.502 M194.484 164.349 C 194.484 168.658,194.541 170.475,194.611 168.385 C 194.681 166.296,194.682 162.770,194.612 160.550 C 194.542 158.330,194.484 160.039,194.484 164.349 M174.893 165.916 C 174.893 169.794,174.952 171.328,175.023 169.324 C 175.094 167.320,175.094 164.147,175.022 162.272 C 174.950 160.398,174.892 162.037,174.893 165.916 M148.780 173.049 C 149.268 173.143,149.973 173.139,150.347 173.041 C 150.722 172.943,150.323 172.866,149.461 172.871 C 148.599 172.875,148.293 172.955,148.780 173.049 M159.564 173.062 C 160.811 173.140,162.750 173.139,163.873 173.060 C 164.997 172.981,163.976 172.917,161.606 172.918 C 159.236 172.919,158.317 172.984,159.564 173.062 M171.700 173.053 C 172.295 173.143,173.177 173.141,173.659 173.048 C 174.141 172.955,173.653 172.881,172.576 172.884 C 171.499 172.887,171.104 172.963,171.700 173.053 M198.936 173.061 C 200.074 173.140,201.837 173.140,202.853 173.059 C 203.870 172.979,202.938 172.914,200.784 172.915 C 198.629 172.916,197.797 172.982,198.936 173.061 M303.036 175.122 C 302.702 175.769,302.517 176.298,302.624 176.298 C 302.732 176.298,303.094 175.769,303.428 175.122 C 303.762 174.476,303.948 173.947,303.840 173.947 C 303.732 173.947,303.371 174.476,303.036 175.122 M141.913 179.432 C 141.913 180.186,141.993 180.495,142.092 180.118 C 142.190 179.740,142.190 179.123,142.092 178.746 C 141.993 178.369,141.913 178.678,141.913 179.432 M280.890 205.583 L 278.355 208.227 280.999 205.692 C 282.453 204.298,283.643 203.108,283.643 203.048 C 283.643 202.759,283.245 203.126,280.890 205.583 M141.620 257.199 C 141.620 284.995,141.667 296.424,141.724 282.597 C 141.781 268.769,141.781 246.027,141.724 232.058 C 141.667 218.089,141.620 229.403,141.620 257.199 M275.594 210.480 L 274.045 212.145 275.710 210.596 C 277.259 209.156,277.555 208.815,277.259 208.815 C 277.195 208.815,276.445 209.564,275.594 210.480 M251.028 226.863 C 250.220 227.290,249.559 227.726,249.559 227.833 C 249.559 227.940,250.264 227.668,251.126 227.228 C 251.988 226.788,252.693 226.344,252.693 226.241 C 252.693 225.985,252.691 225.986,251.028 226.863 M141.605 323.408 C 141.605 330.519,141.658 333.483,141.723 329.995 C 141.788 326.508,141.788 320.690,141.723 317.067 C 141.659 313.444,141.605 316.298,141.605 323.408 M144.564 349.584 C 144.564 349.651,145.137 350.224,145.837 350.857 L 147.111 352.008 145.960 350.735 C 144.887 349.548,144.564 349.281,144.564 349.584 M153.771 358.080 C 154.612 358.942,155.389 359.647,155.497 359.647 C 155.605 359.647,155.004 358.942,154.163 358.080 C 153.321 357.218,152.544 356.513,152.436 356.513 C 152.329 356.513,152.929 357.218,153.771 358.080 M162.194 365.647 C 162.194 365.714,162.767 366.287,163.467 366.920 L 164.740 368.071 163.590 366.797 C 162.517 365.610,162.194 365.344,162.194 365.647 M166.895 370.029 C 168.066 371.214,169.111 372.184,169.219 372.184 C 169.327 372.184,168.457 371.214,167.287 370.029 C 166.117 368.844,165.071 367.875,164.963 367.875 C 164.855 367.875,165.725 368.844,166.895 370.029 M173.555 376.298 C 174.943 377.698,176.167 378.844,176.275 378.844 C 176.383 378.844,175.335 377.698,173.947 376.298 C 172.559 374.897,171.335 373.751,171.227 373.751 C 171.120 373.751,172.167 374.897,173.555 376.298 M182.158 384.035 C 183.781 385.765,184.133 386.076,184.133 385.782 C 184.133 385.719,183.296 384.882,182.272 383.921 L 180.411 382.174 182.158 384.035 M190.206 391.773 C 191.919 393.497,193.410 394.907,193.517 394.907 C 193.625 394.907,192.311 393.497,190.597 391.773 C 188.884 390.049,187.394 388.639,187.286 388.639 C 187.178 388.639,188.492 390.049,190.206 391.773 " stroke="none" fill="#f48d25" fill-rule="evenodd"></path><path id="path3" d="M183.643 2.235 C 184.128 2.329,184.922 2.329,185.406 2.235 C 185.891 2.142,185.495 2.066,184.525 2.066 C 183.555 2.066,183.159 2.142,183.643 2.235 M208.503 2.751 C 207.813 3.171,207.248 3.589,207.248 3.679 C 207.248 3.975,208.600 3.490,209.374 2.918 C 210.566 2.035,209.892 1.906,208.503 2.751 M205.664 6.562 C 205.654 6.724,205.502 7.605,205.324 8.521 C 205.146 9.446,205.153 10.186,205.342 10.186 C 205.528 10.186,205.681 9.646,205.681 8.985 C 205.681 8.324,205.863 7.443,206.086 7.026 C 206.366 6.504,206.366 6.268,206.086 6.268 C 205.863 6.268,205.673 6.401,205.664 6.562 M205.388 17.042 C 205.392 17.904,205.472 18.210,205.566 17.723 C 205.660 17.236,205.656 16.531,205.558 16.156 C 205.460 15.781,205.383 16.180,205.388 17.042 M256.808 17.632 C 257.071 18.056,259.354 19.328,259.354 19.050 C 259.354 18.958,258.726 18.512,257.959 18.060 C 257.192 17.607,256.674 17.415,256.808 17.632 M205.820 26.053 C 205.819 27.992,205.885 28.835,205.967 27.926 C 206.049 27.016,206.050 25.430,205.969 24.400 C 205.888 23.370,205.821 24.114,205.820 26.053 M177.580 24.682 C 177.580 25.651,177.656 26.048,177.750 25.563 C 177.843 25.078,177.843 24.285,177.750 23.800 C 177.656 23.315,177.580 23.712,177.580 24.682 M148.216 28.599 C 148.216 30.000,148.287 30.573,148.374 29.873 C 148.460 29.172,148.460 28.026,148.374 27.326 C 148.287 26.626,148.216 27.199,148.216 28.599 M206.212 34.672 C 206.210 36.611,206.277 37.454,206.359 36.545 C 206.441 35.635,206.442 34.049,206.361 33.019 C 206.280 31.989,206.213 32.733,206.212 34.672 M147.789 32.909 C 147.789 33.663,147.870 33.972,147.968 33.595 C 148.067 33.217,148.067 32.600,147.968 32.223 C 147.870 31.846,147.789 32.155,147.789 32.909 M162.937 33.692 C 162.704 34.924,162.923 36.043,163.398 36.043 C 163.811 36.043,163.813 35.126,163.402 33.692 L 163.122 32.713 162.937 33.692 M177.572 34.280 C 177.576 35.142,177.656 35.448,177.750 34.961 C 177.844 34.474,177.840 33.769,177.742 33.394 C 177.644 33.019,177.568 33.418,177.572 34.280 M278.746 34.476 C 279.588 35.338,280.365 36.043,280.472 36.043 C 280.580 36.043,279.980 35.338,279.138 34.476 C 278.296 33.614,277.520 32.909,277.412 32.909 C 277.304 32.909,277.905 33.614,278.746 34.476 M147.397 37.218 C 147.397 37.973,147.478 38.281,147.577 37.904 C 147.675 37.527,147.675 36.910,147.577 36.533 C 147.478 36.156,147.397 36.464,147.397 37.218 M282.084 37.904 C 283.447 39.487,285.207 41.136,285.535 41.136 C 285.646 41.136,284.693 40.079,283.417 38.786 C 280.776 36.111,280.230 35.750,282.084 37.904 M163.119 41.136 C 163.119 43.183,163.185 44.021,163.265 42.997 C 163.346 41.974,163.346 40.299,163.265 39.275 C 163.185 38.252,163.119 39.089,163.119 41.136 M147.360 39.831 C 147.331 40.298,147.205 41.003,147.081 41.398 C 146.868 42.077,146.879 42.078,147.303 41.419 C 147.549 41.035,147.674 40.330,147.582 39.852 C 147.413 38.982,147.413 38.982,147.360 39.831 M177.193 40.940 C 177.196 42.018,177.272 42.412,177.362 41.816 C 177.452 41.221,177.450 40.339,177.357 39.857 C 177.264 39.376,177.190 39.863,177.193 40.940 M285.245 41.626 C 285.336 41.680,286.027 42.253,286.780 42.899 L 288.149 44.074 286.998 42.801 C 286.365 42.101,285.675 41.528,285.464 41.528 C 285.253 41.528,285.154 41.572,285.245 41.626 M206.767 49.755 C 206.875 53.957,207.028 57.468,207.106 57.558 C 207.362 57.853,207.163 47.267,206.863 44.662 C 206.701 43.253,206.658 45.527,206.767 49.755 M177.172 44.270 C 177.172 45.024,177.253 45.333,177.351 44.956 C 177.450 44.579,177.450 43.962,177.351 43.585 C 177.253 43.208,177.172 43.516,177.172 44.270 M192.899 51.518 C 192.900 53.888,192.964 54.807,193.042 53.561 C 193.120 52.314,193.119 50.374,193.041 49.251 C 192.962 48.128,192.898 49.148,192.899 51.518 M162.703 52.889 C 162.703 54.074,162.777 54.559,162.866 53.967 C 162.956 53.374,162.956 52.405,162.866 51.812 C 162.777 51.219,162.703 51.704,162.703 52.889 M295.788 54.787 C 295.788 54.970,296.168 55.454,296.633 55.865 L 297.477 56.611 296.783 55.534 C 296.069 54.423,295.788 54.213,295.788 54.787 M297.184 57.160 C 297.035 57.400,297.190 57.702,297.527 57.831 C 297.863 57.960,298.139 58.312,298.139 58.612 C 298.139 58.912,298.322 59.158,298.545 59.158 C 298.819 59.158,298.823 58.936,298.558 58.472 C 297.665 56.912,297.459 56.715,297.184 57.160 M207.373 64.251 C 207.373 65.651,207.444 66.224,207.531 65.524 C 207.618 64.824,207.618 63.678,207.531 62.977 C 207.444 62.277,207.373 62.850,207.373 64.251 M162.306 64.447 C 162.309 65.524,162.385 65.918,162.475 65.323 C 162.565 64.727,162.563 63.846,162.470 63.364 C 162.377 62.882,162.303 63.369,162.306 64.447 M193.278 65.622 C 193.280 67.346,193.349 68.002,193.431 67.081 C 193.514 66.159,193.513 64.749,193.429 63.947 C 193.345 63.144,193.277 63.898,193.278 65.622 M176.441 66.797 C 176.442 68.952,176.508 69.784,176.587 68.645 C 176.666 67.507,176.666 65.744,176.585 64.727 C 176.505 63.711,176.440 64.643,176.441 66.797 M207.768 70.715 C 207.770 72.223,207.841 72.792,207.925 71.980 C 208.010 71.167,208.009 69.933,207.922 69.237 C 207.836 68.542,207.766 69.207,207.768 70.715 M144.263 70.519 C 144.263 71.273,144.344 71.582,144.442 71.205 C 144.541 70.828,144.541 70.211,144.442 69.833 C 144.344 69.456,144.263 69.765,144.263 70.519 M225.032 71.525 C 224.893 72.078,224.960 73.092,225.180 73.778 C 225.556 74.946,225.584 74.882,225.621 72.772 C 225.664 70.364,225.441 69.893,225.032 71.525 M227.631 71.457 C 228.379 71.973,229.077 72.314,229.181 72.214 C 229.463 71.945,227.516 70.538,226.847 70.528 C 226.530 70.523,226.883 70.941,227.631 71.457 M161.947 74.829 C 161.947 77.091,162.012 78.017,162.091 76.885 C 162.170 75.754,162.170 73.903,162.091 72.772 C 162.012 71.641,161.947 72.566,161.947 74.829 M176.389 72.478 C 176.389 73.232,176.469 73.541,176.568 73.164 C 176.666 72.786,176.666 72.169,176.568 71.792 C 176.469 71.415,176.389 71.724,176.389 72.478 M229.579 72.652 C 229.579 72.748,230.888 73.811,232.489 75.016 C 234.090 76.221,235.476 77.421,235.570 77.682 C 235.663 77.944,235.856 78.052,235.997 77.922 C 236.369 77.581,233.846 74.972,232.846 74.666 C 232.380 74.523,231.715 73.972,231.368 73.442 C 230.837 72.633,229.579 72.077,229.579 72.652 M207.827 76.923 C 207.677 78.324,207.632 79.704,207.728 79.990 C 207.823 80.275,208.022 79.205,208.170 77.612 C 208.318 76.018,208.363 74.638,208.270 74.545 C 208.177 74.451,207.978 75.522,207.827 76.923 M175.934 75.906 C 175.958 76.861,175.999 76.894,176.298 76.200 C 176.758 75.130,176.758 74.829,176.298 74.829 C 176.082 74.829,175.918 75.313,175.934 75.906 M143.636 76.823 C 143.500 77.504,143.410 78.612,143.437 79.285 C 143.465 80.014,143.621 79.569,143.823 78.186 C 144.184 75.714,144.051 74.748,143.636 76.823 M225.752 76.787 C 225.752 77.542,225.833 77.850,225.931 77.473 C 226.030 77.096,226.030 76.479,225.931 76.102 C 225.833 75.725,225.752 76.033,225.752 76.787 M307.999 78.375 C 308.228 79.032,308.488 79.497,308.577 79.408 C 308.771 79.214,308.032 77.179,307.768 77.179 C 307.666 77.179,307.770 77.717,307.999 78.375 M236.631 78.463 C 236.631 78.523,237.717 79.528,239.045 80.697 C 240.373 81.866,241.299 82.547,241.102 82.209 C 240.534 81.235,236.631 77.965,236.631 78.463 M193.834 78.973 C 193.708 79.176,193.854 79.683,194.158 80.099 C 194.752 80.910,194.840 80.587,194.359 79.360 C 194.196 78.943,193.960 78.769,193.834 78.973 M226.099 81.325 C 226.125 82.385,226.288 83.781,226.461 84.427 C 226.654 85.144,226.692 84.457,226.560 82.664 C 226.310 79.290,226.031 78.477,226.099 81.325 M308.932 80.902 C 309.085 81.548,309.360 82.241,309.544 82.442 C 309.728 82.643,309.711 82.222,309.506 81.507 C 309.028 79.841,308.564 79.353,308.932 80.902 M207.248 81.250 C 207.248 81.550,206.800 81.908,206.252 82.045 C 205.705 82.183,205.356 82.456,205.477 82.651 C 205.598 82.847,205.385 83.189,205.003 83.412 C 204.622 83.634,204.520 83.821,204.777 83.827 C 205.034 83.834,205.475 83.519,205.756 83.128 C 206.038 82.737,206.577 82.301,206.954 82.161 C 207.553 81.937,207.968 80.705,207.444 80.705 C 207.336 80.705,207.248 80.951,207.248 81.250 M143.109 84.427 C 143.112 85.504,143.188 85.899,143.278 85.303 C 143.368 84.708,143.366 83.826,143.273 83.344 C 143.180 82.862,143.106 83.350,143.109 84.427 M172.436 83.405 C 172.143 83.590,171.106 83.758,170.131 83.777 C 167.691 83.826,167.475 84.231,169.889 84.231 C 170.997 84.231,172.167 83.983,172.599 83.656 C 173.421 83.034,173.304 82.855,172.436 83.405 M242.893 84.615 C 244.177 86.236,244.244 86.268,244.611 85.446 C 245.076 84.403,244.423 83.633,242.718 83.214 L 241.558 82.929 242.893 84.615 M244.393 84.598 C 244.491 84.892,244.344 85.039,244.050 84.941 C 243.767 84.847,243.459 84.538,243.364 84.256 C 243.266 83.962,243.413 83.815,243.707 83.913 C 243.990 84.007,244.298 84.316,244.393 84.598 M310.339 85.015 C 310.339 85.338,310.491 85.955,310.676 86.386 C 310.888 86.880,311.013 86.952,311.013 86.582 C 311.013 86.259,310.861 85.642,310.676 85.211 C 310.464 84.717,310.339 84.644,310.339 85.015 M243.667 87.112 C 243.981 87.512,244.628 87.987,245.104 88.168 C 245.590 88.353,246.427 89.410,247.009 90.576 C 247.580 91.719,248.234 92.831,248.461 93.046 C 248.999 93.557,248.846 93.169,247.495 90.600 C 246.901 89.470,246.414 88.413,246.412 88.249 C 246.411 88.086,245.962 87.833,245.413 87.686 C 244.865 87.540,244.119 87.187,243.756 86.903 C 243.154 86.432,243.146 86.451,243.667 87.112 M226.935 88.345 C 226.940 89.207,227.020 89.513,227.114 89.026 C 227.207 88.538,227.204 87.833,227.106 87.459 C 227.008 87.084,226.931 87.483,226.935 88.345 M142.742 90.891 C 142.742 92.723,142.810 93.472,142.892 92.556 C 142.975 91.641,142.975 90.142,142.892 89.226 C 142.810 88.310,142.742 89.060,142.742 90.891 M226.973 94.025 C 226.973 95.857,227.041 96.606,227.123 95.690 C 227.206 94.775,227.206 93.276,227.123 92.360 C 227.041 91.445,226.973 92.194,226.973 94.025 M249.167 94.709 C 249.167 94.893,249.363 95.239,249.601 95.478 C 249.840 95.717,250.160 96.501,250.312 97.221 C 250.579 98.484,250.596 98.495,250.791 97.514 C 250.933 96.806,250.717 96.176,250.081 95.436 C 249.579 94.851,249.167 94.524,249.167 94.709 M142.704 96.572 C 142.708 97.434,142.789 97.740,142.882 97.253 C 142.976 96.766,142.973 96.061,142.874 95.686 C 142.776 95.311,142.700 95.710,142.704 96.572 M251.823 100.517 C 251.678 100.748,251.803 101.717,252.100 102.672 C 252.545 104.099,253.033 104.568,252.684 103.232 C 252.627 103.017,252.470 102.223,252.334 101.469 C 252.197 100.715,251.967 100.287,251.823 100.517 M143.443 101.665 C 143.421 102.096,143.649 103.330,143.949 104.407 C 144.249 105.485,144.493 106.014,144.492 105.583 C 144.488 104.457,143.490 100.727,143.443 101.665 M314.684 104.212 C 314.684 104.966,314.765 105.274,314.864 104.897 C 314.962 104.520,314.962 103.903,314.864 103.526 C 314.765 103.149,314.684 103.457,314.684 104.212 M225.269 105.779 C 225.269 106.425,225.337 106.954,225.421 106.954 C 225.504 106.954,225.650 106.425,225.745 105.779 C 225.840 105.132,225.771 104.603,225.593 104.603 C 225.415 104.603,225.269 105.132,225.269 105.779 M315.024 108.358 C 315.046 109.633,315.210 111.117,315.390 111.655 C 315.586 112.244,315.627 111.383,315.494 109.500 C 315.228 105.752,314.970 105.124,315.024 108.358 M253.757 108.913 C 254.003 110.417,254.150 110.721,254.476 110.395 C 254.595 110.276,254.431 109.586,254.112 108.860 L 253.532 107.542 253.757 108.913 M145.011 108.913 C 145.011 109.236,145.163 109.853,145.348 110.284 C 145.560 110.778,145.684 110.850,145.684 110.480 C 145.684 110.157,145.533 109.540,145.348 109.109 C 145.135 108.615,145.011 108.542,145.011 108.913 M223.947 110.691 C 223.812 111.041,223.717 111.622,223.736 111.981 C 223.754 112.341,223.925 112.115,224.115 111.479 C 224.484 110.243,224.353 109.631,223.947 110.691 M254.261 113.026 C 254.261 113.350,254.437 113.614,254.652 113.614 C 254.868 113.614,255.044 113.350,255.044 113.026 C 255.044 112.703,254.868 112.439,254.652 112.439 C 254.437 112.439,254.261 112.703,254.261 113.026 M254.763 117.924 C 254.774 120.186,254.561 123.945,254.289 126.276 C 254.016 128.608,253.883 130.605,253.993 130.715 C 254.102 130.824,254.310 129.710,254.454 128.238 C 254.598 126.767,254.850 124.594,255.013 123.408 C 255.176 122.223,255.182 119.579,255.026 117.532 L 254.741 113.810 254.763 117.924 M147.757 116.357 C 147.983 117.004,148.326 117.632,148.520 117.752 C 149.009 118.054,148.967 117.840,148.257 116.417 C 147.478 114.854,147.223 114.824,147.757 116.357 M315.886 120.274 C 315.886 121.459,315.960 121.944,316.049 121.352 C 316.139 120.759,316.139 119.789,316.049 119.197 C 315.960 118.604,315.886 119.089,315.886 120.274 M149.737 120.248 C 150.225 121.095,150.691 121.722,150.773 121.640 C 150.942 121.471,149.296 118.707,149.026 118.707 C 148.929 118.707,149.249 119.401,149.737 120.248 M219.785 119.882 C 219.534 120.350,219.417 120.821,219.525 120.929 C 219.633 121.037,219.926 120.742,220.176 120.274 C 220.427 119.806,220.543 119.335,220.436 119.228 C 220.328 119.120,220.035 119.415,219.785 119.882 M315.461 125.604 C 315.415 126.919,315.266 129.122,315.131 130.501 C 314.944 132.397,314.995 132.903,315.340 132.582 C 315.650 132.293,315.756 130.728,315.670 127.685 C 315.601 125.225,315.507 124.289,315.461 125.604 M215.279 127.464 C 215.064 127.712,214.368 128.620,213.733 129.481 C 213.098 130.343,212.398 131.171,212.177 131.321 C 211.956 131.470,211.883 131.700,212.014 131.831 C 212.145 131.963,213.078 130.985,214.086 129.659 C 215.655 127.596,216.473 126.091,215.279 127.464 M253.216 133.595 C 252.296 137.147,252.287 137.281,253.089 135.391 C 253.539 134.332,253.854 133.098,253.790 132.649 C 253.714 132.119,253.512 132.453,253.216 133.595 M208.218 135.776 C 204.522 139.724,204.524 139.858,208.224 136.254 C 209.930 134.592,211.241 133.148,211.138 133.045 C 211.035 132.941,209.720 134.170,208.218 135.776 M315.084 134.966 C 315.088 135.828,315.169 136.134,315.262 135.647 C 315.356 135.159,315.353 134.454,315.254 134.080 C 315.156 133.705,315.080 134.104,315.084 134.966 M160.167 134.966 C 160.408 135.397,161.170 136.278,161.860 136.925 L 163.116 138.100 162.305 136.925 C 161.860 136.278,161.098 135.397,160.612 134.966 L 159.729 134.182 160.167 134.966 M314.295 139.197 C 314.038 140.317,313.745 142.292,313.644 143.585 C 313.543 144.878,313.545 145.495,313.650 144.956 C 314.759 139.221,315.054 137.450,314.920 137.316 C 314.834 137.230,314.552 138.076,314.295 139.197 M251.937 138.296 C 251.855 139.707,246.804 148.904,244.300 152.204 C 243.645 153.066,243.444 153.506,243.853 153.183 C 244.262 152.860,245.176 151.690,245.886 150.583 C 246.596 149.476,247.411 148.330,247.699 148.036 C 247.986 147.743,248.463 146.885,248.758 146.131 C 249.053 145.377,249.583 144.407,249.936 143.976 C 250.833 142.880,252.413 138.803,252.171 138.204 C 252.032 137.857,251.961 137.884,251.937 138.296 M166.598 141.724 C 168.221 143.394,170.691 146.059,172.086 147.647 L 174.623 150.535 174.878 158.029 C 175.018 162.151,175.152 167.162,175.176 169.164 C 175.200 171.166,175.308 172.717,175.414 172.610 C 175.721 172.304,175.502 151.133,175.186 150.569 C 174.392 149.149,164.459 138.688,163.905 138.688 C 163.763 138.688,164.975 140.054,166.598 141.724 M200.930 142.997 C 200.904 143.213,200.851 143.609,200.815 143.879 C 200.778 144.148,200.491 144.310,200.178 144.238 C 199.865 144.166,199.744 144.243,199.911 144.410 C 200.077 144.576,199.548 145.435,198.736 146.319 C 197.923 147.202,198.265 146.928,199.497 145.709 C 200.729 144.491,201.869 143.602,202.031 143.735 C 202.193 143.868,202.089 143.668,201.800 143.291 C 201.201 142.508,201.000 142.440,200.930 142.997 M312.642 147.757 C 312.402 148.694,311.911 150.031,311.551 150.728 C 311.094 151.613,311.021 152.118,311.309 152.406 C 311.597 152.694,311.984 151.860,312.595 149.630 C 313.075 147.877,313.380 146.355,313.273 146.247 C 313.166 146.140,312.882 146.819,312.642 147.757 M195.876 149.197 C 194.590 150.791,194.321 151.698,194.377 154.255 L 194.434 156.905 194.690 154.139 C 194.861 152.295,195.244 150.892,195.840 149.928 C 196.798 148.378,196.815 148.032,195.876 149.197 M241.841 155.230 C 240.970 156.354,240.884 156.844,241.706 155.998 C 242.190 155.499,242.505 155.009,242.407 154.911 C 242.308 154.812,242.053 154.956,241.841 155.230 M310.298 155.508 C 309.800 156.437,309.776 157.101,310.240 157.101 C 310.431 157.101,310.665 156.572,310.759 155.926 C 310.960 154.556,310.857 154.463,310.298 155.508 M239.702 157.670 C 239.461 158.198,238.235 159.353,236.977 160.235 C 235.719 161.118,234.554 162.057,234.387 162.324 C 234.033 162.889,230.731 165.328,230.319 165.328 C 230.165 165.328,229.102 165.945,227.957 166.699 C 225.754 168.150,225.638 168.521,227.737 167.402 C 228.427 167.035,229.123 166.770,229.285 166.815 C 229.447 166.859,229.579 166.631,229.579 166.308 C 229.579 165.984,229.835 165.720,230.149 165.720 C 230.951 165.720,233.433 163.977,235.109 162.237 C 235.889 161.428,237.123 160.480,237.852 160.131 C 239.116 159.526,240.219 158.254,240.397 157.199 C 240.532 156.396,240.171 156.641,239.702 157.670 M308.397 161.495 C 308.142 161.750,307.948 162.408,307.965 162.958 C 307.995 163.898,308.031 163.879,308.573 162.638 C 309.197 161.206,309.129 160.763,308.397 161.495 M306.567 166.627 C 305.728 168.635,305.863 168.935,306.804 167.152 C 307.241 166.324,307.500 165.547,307.379 165.427 C 307.259 165.306,306.893 165.846,306.567 166.627 M224.595 168.509 C 224.354 168.751,222.424 169.537,220.305 170.256 C 218.187 170.975,216.840 171.571,217.311 171.580 C 218.355 171.600,224.480 169.263,225.199 168.569 C 225.484 168.295,225.563 168.071,225.376 168.071 C 225.188 168.071,224.837 168.268,224.595 168.509 M305.306 169.344 C 305.101 169.613,304.528 170.803,304.034 171.988 C 303.539 173.173,302.804 174.611,302.400 175.183 C 301.996 175.755,301.665 176.463,301.665 176.757 C 301.665 177.051,301.255 177.905,300.753 178.655 C 299.750 180.156,299.016 181.845,299.650 181.195 C 300.170 180.661,304.016 173.524,304.016 173.092 C 304.016 172.901,304.459 171.870,305.002 170.800 C 305.955 168.919,306.078 168.330,305.306 169.344 M194.505 172.005 C 194.040 172.756,195.165 173.556,196.620 173.510 C 197.402 173.485,197.689 173.390,197.258 173.299 C 196.827 173.208,196.061 173.044,195.557 172.936 C 194.953 172.806,194.715 172.544,194.859 172.168 C 195.112 171.509,194.878 171.402,194.505 172.005 M207.835 172.772 L 204.310 173.015 208.498 173.090 C 210.951 173.133,212.787 173.001,212.929 172.772 C 213.067 172.548,212.784 172.412,212.266 172.454 C 211.768 172.495,209.775 172.638,207.835 172.772 M152.509 173.060 C 153.539 173.141,155.126 173.140,156.035 173.058 C 156.945 172.976,156.102 172.910,154.163 172.911 C 152.223 172.912,151.479 172.979,152.509 173.060 M166.789 173.055 C 167.484 173.141,168.718 173.143,169.531 173.058 C 170.344 172.973,169.775 172.902,168.266 172.900 C 166.758 172.899,166.093 172.968,166.789 173.055 M172.086 173.434 C 172.463 173.532,173.080 173.532,173.457 173.434 C 173.834 173.335,173.526 173.254,172.772 173.254 C 172.018 173.254,171.709 173.335,172.086 173.434 M141.989 189.030 C 141.989 193.771,142.046 195.656,142.114 193.220 C 142.183 190.784,142.183 186.906,142.114 184.601 C 142.045 182.297,141.988 184.290,141.989 189.030 M298.049 182.860 C 297.794 183.452,296.784 185.148,295.805 186.628 C 294.826 188.108,293.792 189.745,293.508 190.266 C 293.223 190.787,292.650 191.426,292.234 191.685 C 291.819 191.945,291.479 192.481,291.479 192.877 C 291.479 193.879,292.669 192.407,295.881 187.434 C 299.097 182.453,299.459 181.783,298.928 181.783 C 298.700 181.783,298.305 182.267,298.049 182.860 M288.969 196.144 C 288.418 196.972,287.446 197.996,286.809 198.420 C 286.172 198.844,285.472 199.584,285.253 200.064 C 285.034 200.545,284.406 201.232,283.857 201.591 C 283.309 201.951,282.858 202.445,282.856 202.690 C 282.852 203.154,278.118 207.939,276.990 208.619 C 276.632 208.834,275.647 209.804,274.800 210.774 C 272.171 213.786,281.009 205.497,284.726 201.465 C 289.321 196.480,290.447 195.116,290.186 194.854 C 290.067 194.736,289.520 195.316,288.969 196.144 M272.064 212.896 C 271.646 213.202,271.408 213.556,271.534 213.682 C 271.661 213.809,272.085 213.559,272.476 213.127 C 273.308 212.207,273.137 212.112,272.064 212.896 M269.012 215.314 C 268.192 215.872,267.610 216.419,267.720 216.529 C 267.909 216.718,270.715 214.769,270.715 214.449 C 270.715 214.188,270.537 214.278,269.012 215.314 M266.166 217.426 C 265.711 217.610,265.231 218.041,265.100 218.384 C 264.920 218.853,265.151 218.794,266.025 218.147 C 267.570 217.005,267.601 216.846,266.166 217.426 M262.880 219.725 C 262.880 219.908,262.174 220.375,261.312 220.764 C 260.451 221.153,259.745 221.635,259.745 221.835 C 259.745 222.035,260.406 221.805,261.214 221.323 C 263.101 220.199,263.994 219.393,263.355 219.393 C 263.094 219.393,262.880 219.542,262.880 219.725 M255.229 224.243 C 254.804 224.540,254.104 224.853,253.673 224.938 C 253.219 225.027,253.065 225.203,253.308 225.356 C 253.538 225.501,254.420 225.194,255.267 224.673 C 256.114 224.153,256.626 223.721,256.405 223.714 C 256.183 223.708,255.654 223.946,255.229 224.243 M246.915 228.450 C 246.214 228.652,245.642 228.980,245.642 229.178 C 245.642 229.377,246.303 229.265,247.111 228.930 C 249.446 227.962,249.357 227.745,246.915 228.450 M231.929 234.280 C 231.151 234.783,232.129 234.783,233.301 234.280 L 234.084 233.943 233.301 233.922 C 232.870 233.910,232.253 234.071,231.929 234.280 M227.269 235.210 C 227.024 235.506,225.988 235.872,224.969 236.023 C 223.949 236.174,222.674 236.382,222.135 236.484 C 221.596 236.586,220.186 236.816,219.001 236.994 C 217.716 237.188,217.321 237.337,218.022 237.364 C 220.911 237.474,230.186 235.505,228.991 235.035 C 227.879 234.598,227.768 234.609,227.269 235.210 M214.202 237.691 C 214.687 237.784,215.480 237.784,215.965 237.691 C 216.450 237.597,216.053 237.521,215.083 237.521 C 214.114 237.521,213.717 237.597,214.202 237.691 M204.672 238.245 C 204.555 238.435,205.469 238.590,206.702 238.590 C 207.936 238.590,208.872 238.525,208.782 238.446 C 208.395 238.105,204.865 237.933,204.672 238.245 M202.721 251.322 C 202.721 258.217,202.775 260.983,202.840 257.468 C 202.905 253.953,202.905 248.311,202.839 244.931 C 202.774 241.551,202.721 244.427,202.721 251.322 M202.724 293.046 C 202.724 301.126,202.776 304.432,202.840 300.392 C 202.903 296.352,202.903 289.740,202.840 285.700 C 202.776 281.660,202.724 284.966,202.724 293.046 M141.909 326.839 C 141.995 342.263,142.124 346.394,142.532 346.798 C 142.956 347.217,142.980 347.131,142.669 346.305 C 142.448 345.721,142.268 337.482,142.235 326.536 C 142.204 316.214,142.094 307.683,141.990 307.579 C 141.885 307.475,141.849 316.142,141.909 326.839 M202.713 322.037 C 202.713 326.670,202.770 328.565,202.839 326.249 C 202.908 323.932,202.908 320.142,202.839 317.826 C 202.770 315.509,202.713 317.405,202.713 322.037 M202.707 342.997 C 202.706 346.660,202.765 348.211,202.838 346.444 C 202.910 344.677,202.910 341.680,202.839 339.784 C 202.767 337.888,202.707 339.334,202.707 342.997 M145.348 349.876 C 145.348 350.104,145.500 350.197,145.687 350.081 C 145.874 349.966,146.342 350.220,146.727 350.646 C 147.113 351.072,147.291 351.420,147.123 351.420 C 146.643 351.420,147.743 352.595,148.646 353.046 C 149.190 353.318,149.083 353.116,148.323 352.437 C 147.697 351.878,147.331 351.420,147.510 351.420 C 147.689 351.420,147.421 350.979,146.915 350.441 C 145.941 349.404,145.348 349.190,145.348 349.876 M150.833 355.142 C 152.216 356.569,152.650 356.859,152.156 356.024 C 151.636 355.145,150.254 353.785,149.874 353.778 C 149.670 353.774,150.102 354.388,150.833 355.142 M155.926 359.533 C 155.926 359.773,156.499 360.438,157.199 361.010 C 157.899 361.582,159.131 362.656,159.936 363.396 C 160.741 364.135,161.711 364.733,162.091 364.725 C 162.605 364.713,162.520 364.567,161.760 364.154 C 161.199 363.849,160.435 363.135,160.064 362.569 C 159.693 362.002,159.282 361.645,159.151 361.776 C 159.020 361.907,158.241 361.358,157.419 360.555 C 156.598 359.753,155.926 359.293,155.926 359.533 M202.699 364.153 C 202.699 366.954,202.762 368.048,202.837 366.585 C 202.913 365.122,202.912 362.830,202.836 361.492 C 202.760 360.154,202.698 361.352,202.699 364.153 M162.586 365.458 C 162.586 365.667,163.643 366.755,164.936 367.875 C 166.229 368.995,167.287 369.744,167.287 369.539 C 167.287 369.335,166.229 368.247,164.936 367.123 C 163.643 365.998,162.586 365.249,162.586 365.458 M168.685 370.965 C 168.567 371.157,169.369 372.082,170.468 373.022 C 171.567 373.962,172.976 375.229,173.599 375.838 C 174.221 376.447,174.731 376.778,174.731 376.573 C 174.731 376.250,173.647 375.230,169.743 371.876 C 169.262 371.463,168.983 371.011,169.122 370.871 C 169.262 370.731,169.269 370.617,169.138 370.617 C 169.007 370.617,168.803 370.774,168.685 370.965 M179.998 381.743 C 180.656 382.367,182.693 384.288,184.525 386.011 C 186.357 387.733,189.132 390.382,190.692 391.897 C 192.253 393.412,193.653 394.529,193.803 394.379 C 193.953 394.228,193.690 393.835,193.218 393.505 C 192.746 393.174,192.360 392.661,192.360 392.365 C 192.360 392.068,192.006 391.713,191.573 391.576 C 191.141 391.438,189.510 390.087,187.950 388.572 C 186.389 387.058,184.716 385.551,184.231 385.225 C 183.746 384.898,183.349 384.431,183.349 384.186 C 183.348 383.942,182.820 383.389,182.174 382.958 C 181.529 382.527,181.001 382.042,181.000 381.881 C 181.000 381.719,180.793 381.587,180.540 381.587 C 180.288 381.587,179.793 381.366,179.441 381.097 C 179.089 380.828,179.339 381.118,179.998 381.743 M202.637 389.814 C 202.637 390.568,202.718 390.877,202.817 390.500 C 202.915 390.122,202.915 389.505,202.817 389.128 C 202.718 388.751,202.637 389.060,202.637 389.814 M195.103 395.285 C 195.103 395.493,195.500 395.871,195.984 396.125 C 196.861 396.586,196.862 396.584,196.119 395.748 C 195.290 394.814,195.103 394.728,195.103 395.285 " stroke="none" fill="#f48d25" fill-rule="evenodd"></path><path id="path4" d="M210.088 1.837 C 210.465 1.936,211.082 1.936,211.459 1.837 C 211.836 1.739,211.528 1.658,210.774 1.658 C 210.020 1.658,209.711 1.739,210.088 1.837 M177.594 14.691 C 177.597 15.984,177.670 16.466,177.757 15.762 C 177.844 15.058,177.842 14.000,177.753 13.411 C 177.664 12.823,177.592 13.399,177.594 14.691 M164.259 24.682 C 164.259 25.651,164.336 26.048,164.429 25.563 C 164.523 25.078,164.523 24.285,164.429 23.800 C 164.336 23.315,164.259 23.712,164.259 24.682 M192.451 30.167 C 192.451 30.921,192.532 31.229,192.630 30.852 C 192.729 30.475,192.729 29.858,192.630 29.481 C 192.532 29.104,192.451 29.412,192.451 30.167 M205.772 32.909 C 205.772 33.663,205.852 33.972,205.951 33.595 C 206.049 33.217,206.049 32.600,205.951 32.223 C 205.852 31.846,205.772 32.155,205.772 32.909 M282.452 37.708 C 283.412 38.732,284.250 39.569,284.313 39.569 C 284.607 39.569,284.296 39.217,282.566 37.594 L 280.705 35.847 282.452 37.708 M176.788 49.167 C 176.793 50.029,176.873 50.336,176.967 49.849 C 177.060 49.361,177.057 48.656,176.959 48.281 C 176.861 47.907,176.784 48.306,176.788 49.167 M206.576 53.869 C 206.579 54.946,206.655 55.340,206.745 54.745 C 206.835 54.149,206.833 53.268,206.740 52.786 C 206.647 52.304,206.573 52.791,206.576 53.869 M193.256 57.786 C 193.259 58.864,193.335 59.258,193.425 58.663 C 193.515 58.067,193.513 57.186,193.420 56.704 C 193.327 56.222,193.253 56.709,193.256 57.786 M162.703 58.766 C 162.703 59.951,162.777 60.436,162.866 59.843 C 162.956 59.251,162.956 58.281,162.866 57.689 C 162.777 57.096,162.703 57.581,162.703 58.766 M162.285 70.519 C 162.285 71.273,162.365 71.582,162.464 71.205 C 162.563 70.828,162.563 70.211,162.464 69.833 C 162.365 69.456,162.285 69.765,162.285 70.519 M225.752 73.653 C 225.752 74.407,225.833 74.716,225.931 74.339 C 226.030 73.962,226.030 73.345,225.931 72.968 C 225.833 72.591,225.752 72.899,225.752 73.653 M209.598 134.966 C 208.647 135.935,207.956 136.729,208.064 136.729 C 208.172 136.729,209.039 135.935,209.990 134.966 C 210.942 133.996,211.632 133.203,211.525 133.203 C 211.417 133.203,210.550 133.996,209.598 134.966 M166.503 142.018 C 167.234 142.772,167.921 143.389,168.028 143.389 C 168.136 143.389,167.626 142.772,166.895 142.018 C 166.164 141.263,165.478 140.646,165.370 140.646 C 165.263 140.646,165.772 141.263,166.503 142.018 M240.447 156.137 C 239.856 156.685,239.373 157.247,239.373 157.386 C 239.373 157.525,239.902 157.133,240.548 156.513 C 241.628 155.479,241.892 155.142,241.622 155.142 C 241.566 155.142,241.037 155.590,240.447 156.137 M141.587 198.825 C 141.587 202.057,141.648 203.327,141.722 201.647 C 141.795 199.967,141.795 197.323,141.721 195.771 C 141.646 194.218,141.586 195.593,141.587 198.825 M284.798 201.665 L 283.448 203.134 284.917 201.784 C 285.725 201.042,286.386 200.380,286.386 200.315 C 286.386 200.016,286.054 200.298,284.798 201.665 M141.537 309.109 C 141.537 310.078,141.613 310.475,141.706 309.990 C 141.800 309.505,141.800 308.712,141.706 308.227 C 141.613 307.742,141.537 308.139,141.537 309.109 M141.571 339.667 C 141.571 341.714,141.637 342.551,141.718 341.528 C 141.799 340.504,141.799 338.830,141.718 337.806 C 141.637 336.783,141.571 337.620,141.571 339.667 M155.534 359.770 C 155.534 359.837,156.107 360.410,156.807 361.043 L 158.080 362.194 156.930 360.921 C 155.857 359.734,155.534 359.467,155.534 359.770 M160.823 364.740 C 161.664 365.602,162.441 366.308,162.549 366.308 C 162.657 366.308,162.056 365.602,161.214 364.740 C 160.373 363.879,159.596 363.173,159.488 363.173 C 159.381 363.173,159.981 363.879,160.823 364.740 M185.504 387.463 C 186.346 388.325,187.123 389.030,187.231 389.030 C 187.338 389.030,186.738 388.325,185.896 387.463 C 185.055 386.601,184.278 385.896,184.170 385.896 C 184.062 385.896,184.663 386.601,185.504 387.463 " stroke="none" fill="#f48d25" fill-rule="evenodd"></path><path id="path5" d="M157.297 2.351 C 157.150 2.588,157.691 2.742,158.663 2.742 C 160.051 2.742,160.525 2.992,162.114 4.560 L 163.957 6.378 163.820 17.195 C 163.744 23.144,163.781 27.916,163.901 27.800 C 164.021 27.683,164.234 22.747,164.373 16.830 L 164.627 6.072 162.855 4.389 C 160.744 2.385,157.917 1.348,157.297 2.351 M210.680 2.236 C 211.168 2.330,211.873 2.326,212.247 2.228 C 212.622 2.130,212.223 2.053,211.361 2.058 C 210.500 2.062,210.193 2.142,210.680 2.236 M180.803 3.061 C 179.858 3.566,179.766 3.718,180.332 3.836 C 180.720 3.916,181.302 3.762,181.626 3.493 C 181.950 3.224,182.867 2.877,183.664 2.722 L 185.113 2.441 183.546 2.437 C 182.684 2.435,181.450 2.716,180.803 3.061 M186.560 2.764 C 187.176 3.010,187.533 3.398,187.418 3.698 C 187.287 4.039,187.558 4.212,188.224 4.212 C 190.135 4.212,189.025 2.876,186.838 2.545 C 185.557 2.351,185.546 2.360,186.560 2.764 M213.908 2.742 C 214.677 3.239,216.147 3.239,216.454 2.742 C 216.602 2.504,216.035 2.353,215.008 2.357 C 213.774 2.361,213.478 2.465,213.908 2.742 M152.498 3.002 C 152.228 3.111,152.020 3.581,152.034 4.048 L 152.061 4.897 152.477 4.036 C 152.706 3.563,153.267 3.102,153.724 3.012 C 154.486 2.862,154.490 2.847,153.771 2.827 C 153.340 2.814,152.767 2.893,152.498 3.002 M220.960 3.918 C 221.499 4.090,222.380 4.228,222.919 4.224 C 223.798 4.218,223.779 4.186,222.723 3.918 C 221.066 3.496,219.643 3.496,220.960 3.918 M178.760 5.718 C 178.242 6.881,178.066 8.423,178.027 12.145 L 177.976 17.042 178.237 12.733 C 178.381 10.362,178.790 7.550,179.146 6.483 C 179.939 4.109,179.694 3.624,178.760 5.718 M189.560 4.546 C 189.464 4.739,189.791 5.684,190.286 6.645 C 190.825 7.693,191.179 8.085,191.169 7.625 C 191.148 6.660,189.796 4.072,189.560 4.546 M151.573 5.353 C 150.541 5.628,150.046 7.295,149.866 11.101 L 149.696 14.691 150.046 11.696 C 150.431 8.402,151.375 5.682,152.000 6.067 C 152.220 6.203,152.400 6.040,152.400 5.704 C 152.400 5.368,152.356 5.113,152.302 5.138 C 152.248 5.163,151.920 5.260,151.573 5.353 M235.847 8.001 C 236.939 8.659,237.797 8.830,237.199 8.271 C 236.994 8.080,236.386 7.808,235.847 7.667 L 234.868 7.411 235.847 8.001 M191.495 15.475 C 191.600 19.354,191.749 22.600,191.827 22.690 C 192.071 22.971,191.885 14.042,191.587 11.166 C 191.430 9.643,191.389 11.559,191.495 15.475 M238.981 9.229 C 238.981 9.538,242.535 11.073,242.751 10.857 C 242.849 10.759,242.131 10.303,241.155 9.845 C 239.280 8.963,238.981 8.878,238.981 9.229 M249.951 14.235 C 249.951 14.336,250.520 14.617,251.215 14.860 C 251.911 15.102,252.307 15.139,252.097 14.942 C 251.651 14.524,249.951 13.964,249.951 14.235 M149.331 16.552 C 149.281 17.975,149.404 18.413,149.853 18.413 C 150.203 18.413,150.438 18.057,150.435 17.532 C 150.430 16.848,150.349 16.777,150.071 17.216 C 149.812 17.625,149.670 17.356,149.555 16.236 C 149.401 14.727,149.396 14.734,149.331 16.552 M255.217 17.055 C 255.635 17.371,256.154 17.630,256.369 17.630 C 256.585 17.630,256.419 17.371,256.000 17.055 C 255.582 16.738,255.064 16.479,254.848 16.479 C 254.633 16.479,254.799 16.738,255.217 17.055 M177.943 20.960 C 177.897 22.899,177.780 25.720,177.683 27.228 L 177.507 29.971 177.893 27.228 C 178.105 25.720,178.222 22.899,178.153 20.960 L 178.027 17.434 177.943 20.960 M261.508 20.928 C 261.939 21.254,262.468 21.668,262.684 21.848 C 262.899 22.027,263.648 22.512,264.349 22.925 C 265.049 23.338,265.622 23.799,265.622 23.951 C 265.622 24.102,266.283 24.624,267.091 25.111 C 267.899 25.598,268.825 26.224,269.148 26.504 C 269.471 26.783,271.046 28.162,272.648 29.568 C 274.250 30.975,275.748 32.120,275.978 32.112 C 276.208 32.105,275.955 31.737,275.416 31.295 C 274.878 30.853,273.996 30.108,273.457 29.640 C 271.516 27.954,266.572 24.032,265.230 23.112 C 264.476 22.596,263.771 22.057,263.663 21.915 C 263.555 21.773,262.850 21.359,262.096 20.996 C 261.063 20.497,260.918 20.481,261.508 20.928 M177.564 31.734 C 177.564 32.488,177.645 32.796,177.743 32.419 C 177.842 32.042,177.842 31.425,177.743 31.048 C 177.645 30.671,177.564 30.979,177.564 31.734 M163.213 33.170 C 163.573 34.671,163.761 34.813,163.761 33.585 C 163.761 33.023,163.578 32.450,163.354 32.312 C 163.086 32.146,163.038 32.442,163.213 33.170 M277.003 33.084 C 277.627 33.922,279.761 36.043,279.980 36.043 C 280.298 36.043,280.025 35.726,278.276 34.068 C 277.264 33.107,276.691 32.664,277.003 33.084 M192.258 38.002 C 192.349 40.049,192.483 41.900,192.557 42.116 C 192.832 42.924,192.662 36.197,192.383 35.260 C 192.223 34.721,192.166 35.955,192.258 38.002 M162.443 48.699 C 162.258 52.967,162.195 56.547,162.304 56.656 C 162.569 56.921,163.080 45.365,162.912 42.899 C 162.839 41.822,162.627 44.432,162.443 48.699 M147.176 41.789 C 147.032 41.933,146.931 42.594,146.950 43.258 L 146.985 44.466 147.364 43.150 C 147.743 41.835,147.668 41.297,147.176 41.789 M286.748 43.291 C 286.967 43.722,287.724 44.717,288.431 45.502 C 289.138 46.287,289.926 47.256,290.183 47.656 C 290.569 48.258,290.653 48.276,290.672 47.762 C 290.685 47.420,289.718 46.097,288.522 44.823 C 287.327 43.550,286.529 42.860,286.748 43.291 M176.937 54.121 C 176.750 59.000,176.681 63.231,176.784 63.523 C 177.096 64.405,177.537 54.579,177.403 49.755 C 177.295 45.896,177.228 46.522,176.937 54.121 M291.479 49.234 C 291.479 49.735,292.983 51.124,293.243 50.864 C 293.348 50.759,292.995 50.259,292.457 49.754 C 291.919 49.248,291.479 49.015,291.479 49.234 M146.222 52.498 C 146.222 53.252,146.303 53.560,146.401 53.183 C 146.500 52.806,146.500 52.189,146.401 51.812 C 146.303 51.435,146.222 51.743,146.222 52.498 M293.702 51.952 C 293.858 52.360,294.412 53.134,294.935 53.673 L 295.884 54.652 295.151 53.349 C 294.264 51.773,293.268 50.812,293.702 51.952 M162.315 60.529 C 162.318 61.822,162.391 62.303,162.478 61.599 C 162.565 60.895,162.563 59.837,162.474 59.249 C 162.384 58.660,162.313 59.236,162.315 60.529 M300.508 63.109 C 300.748 63.558,301.023 63.848,301.118 63.753 C 301.393 63.479,300.837 62.292,300.434 62.292 C 300.234 62.292,300.267 62.659,300.508 63.109 M303.643 68.756 C 303.634 68.972,304.067 70.015,304.605 71.075 C 305.143 72.135,305.575 72.752,305.565 72.446 C 305.544 71.789,303.667 68.184,303.643 68.756 M193.235 73.262 C 193.235 74.016,193.315 74.324,193.414 73.947 C 193.513 73.570,193.513 72.953,193.414 72.576 C 193.315 72.199,193.235 72.507,193.235 73.262 M176.205 76.396 C 175.740 77.976,175.828 79.509,176.334 78.640 C 176.556 78.258,176.683 77.377,176.616 76.681 C 176.499 75.469,176.482 75.457,176.205 76.396 M175.178 80.955 C 174.707 82.005,174.717 82.035,175.336 81.429 C 175.699 81.073,175.926 80.569,175.839 80.307 C 175.752 80.046,175.454 80.338,175.178 80.955 M162.200 80.523 C 162.211 81.198,162.927 82.062,163.227 81.762 C 163.387 81.601,163.220 81.172,162.856 80.808 C 162.492 80.444,162.197 80.316,162.200 80.523 M163.761 82.448 C 163.761 83.076,166.977 84.416,167.748 84.108 C 168.044 83.990,167.912 83.888,167.440 83.870 C 166.985 83.853,165.971 83.404,165.187 82.872 C 164.175 82.185,163.761 82.062,163.761 82.448 M195.886 82.639 C 195.886 83.317,198.389 84.238,200.085 84.185 L 201.567 84.139 199.752 83.832 C 198.754 83.664,197.475 83.223,196.912 82.854 C 196.254 82.423,195.886 82.346,195.886 82.639 M204.286 83.239 C 203.868 83.556,203.713 83.820,203.941 83.827 C 204.169 83.834,204.698 83.581,205.116 83.264 C 205.534 82.948,205.690 82.683,205.462 82.677 C 205.234 82.670,204.705 82.923,204.286 83.239 M242.899 85.506 C 242.899 85.830,243.164 86.314,243.487 86.582 C 243.965 86.978,244.074 86.960,244.074 86.482 C 244.074 86.159,243.810 85.675,243.487 85.406 C 243.009 85.010,242.899 85.028,242.899 85.506 M311.101 88.932 C 311.113 89.256,311.274 89.873,311.459 90.304 L 311.796 91.087 311.818 90.304 C 311.829 89.873,311.668 89.256,311.459 88.932 C 311.122 88.410,311.082 88.410,311.101 88.932 M142.997 98.116 C 142.997 98.857,143.133 99.548,143.298 99.650 C 143.464 99.752,143.533 99.146,143.453 98.302 C 143.272 96.408,142.997 96.295,142.997 98.116 M250.786 97.551 C 250.777 98.090,251.019 99.060,251.324 99.706 L 251.878 100.881 251.634 99.706 C 251.500 99.060,251.258 98.090,251.096 97.551 L 250.802 96.572 250.786 97.551 M145.736 110.659 C 145.916 111.457,146.192 112.227,146.349 112.372 C 146.763 112.751,146.185 109.985,145.763 109.563 C 145.552 109.352,145.541 109.795,145.736 110.659 M254.288 111.361 C 254.273 111.954,254.437 112.439,254.652 112.439 C 255.112 112.439,255.112 112.138,254.652 111.068 C 254.354 110.373,254.312 110.407,254.288 111.361 M220.813 117.418 C 220.678 117.804,220.465 118.340,220.339 118.609 C 220.214 118.879,220.283 119.099,220.493 119.099 C 220.703 119.099,220.991 118.637,221.132 118.073 C 221.430 116.889,221.179 116.375,220.813 117.418 M217.420 123.703 C 217.125 124.295,216.820 124.912,216.744 125.073 C 216.667 125.235,216.752 125.367,216.933 125.367 C 217.264 125.367,218.311 122.979,218.081 122.749 C 218.013 122.681,217.716 123.111,217.420 123.703 M152.288 123.664 C 151.959 124.197,153.019 125.662,153.434 125.247 C 153.607 125.074,153.559 124.810,153.328 124.660 C 153.098 124.510,152.827 124.132,152.726 123.819 C 152.611 123.461,152.449 123.404,152.288 123.664 M153.967 126.838 C 153.967 127.054,154.231 127.450,154.554 127.718 C 154.882 127.990,155.142 128.032,155.142 127.814 C 155.142 127.598,154.878 127.203,154.554 126.934 C 154.227 126.662,153.967 126.620,153.967 126.838 M155.499 129.157 C 156.432 130.762,157.792 132.103,158.054 131.678 C 158.405 131.111,157.988 130.460,157.274 130.460 C 156.963 130.460,156.709 130.202,156.709 129.886 C 156.709 129.571,156.343 129.117,155.896 128.877 C 155.171 128.489,155.128 128.520,155.499 129.157 M159.146 133.587 C 159.412 134.014,159.860 134.451,160.141 134.559 C 160.463 134.683,160.394 134.400,159.954 133.795 C 159.120 132.649,158.453 132.477,159.146 133.587 M242.977 154.045 C 242.405 154.617,242.368 155.142,242.899 155.142 C 243.115 155.142,243.291 154.892,243.291 154.587 C 243.291 154.282,243.511 153.943,243.781 153.834 C 244.050 153.726,244.085 153.623,243.859 153.606 C 243.633 153.589,243.236 153.786,242.977 154.045 M240.976 156.590 C 240.457 157.086,240.209 157.493,240.426 157.493 C 240.862 157.493,242.335 155.989,242.081 155.804 C 241.992 155.740,241.495 156.093,240.976 156.590 M236.533 160.899 C 235.725 161.454,235.064 162.076,235.064 162.282 C 235.064 162.487,235.569 162.243,236.186 161.739 C 236.804 161.235,237.641 160.613,238.047 160.356 C 238.453 160.099,238.609 159.890,238.394 159.890 C 238.178 159.890,237.341 160.344,236.533 160.899 M144.541 175.473 C 143.369 176.527,142.498 177.478,142.605 177.585 C 142.713 177.693,143.859 176.830,145.152 175.669 C 146.445 174.507,147.316 173.556,147.087 173.556 C 146.859 173.556,145.713 174.418,144.541 175.473 M208.330 238.083 C 208.817 238.177,209.522 238.173,209.897 238.075 C 210.271 237.977,209.873 237.901,209.011 237.905 C 208.149 237.909,207.842 237.989,208.330 238.083 M202.711 271.107 C 202.711 275.309,202.768 277.027,202.839 274.927 C 202.909 272.826,202.909 269.388,202.839 267.287 C 202.768 265.186,202.711 266.905,202.711 271.107 M202.683 310.676 C 202.683 312.507,202.751 313.257,202.833 312.341 C 202.916 311.425,202.916 309.927,202.833 309.011 C 202.751 308.095,202.683 308.844,202.683 310.676 M202.683 333.399 C 202.683 335.230,202.751 335.979,202.833 335.064 C 202.916 334.148,202.916 332.649,202.833 331.734 C 202.751 330.818,202.683 331.567,202.683 333.399 M202.699 354.358 C 202.699 357.160,202.762 358.254,202.837 356.791 C 202.913 355.327,202.912 353.035,202.836 351.698 C 202.760 350.360,202.698 351.557,202.699 354.358 M145.826 350.309 C 145.910 350.560,146.409 351.037,146.936 351.369 L 147.894 351.972 146.944 350.913 C 145.919 349.769,145.586 349.589,145.826 350.309 M202.717 378.844 C 202.717 384.339,202.772 386.587,202.839 383.839 C 202.907 381.092,202.907 376.596,202.839 373.849 C 202.772 371.102,202.717 373.350,202.717 378.844 M174.731 376.809 C 174.731 376.986,175.260 377.637,175.906 378.257 C 176.552 378.876,177.081 379.237,177.081 379.058 C 177.081 378.879,176.552 378.228,175.906 377.610 C 175.260 376.992,174.731 376.632,174.731 376.809 M201.257 393.805 C 200.497 394.571,200.345 394.907,200.759 394.907 C 201.307 394.907,202.843 393.063,202.502 392.814 C 202.419 392.753,201.859 393.199,201.257 393.805 M193.757 394.474 C 193.638 394.667,193.829 394.936,194.182 395.071 C 194.944 395.364,195.282 395.122,194.923 394.541 C 194.608 394.032,194.050 394.000,193.757 394.474 M197.741 395.972 C 197.144 396.062,196.758 396.300,196.882 396.501 C 197.175 396.975,198.629 396.976,198.629 396.503 C 198.629 396.303,198.937 396.059,199.314 395.961 C 200.167 395.738,199.245 395.744,197.741 395.972 " stroke="none" fill="#f48d25" fill-rule="evenodd"></path></g></svg>